{"glyphs":{"0":{"ha":999,"x_min":35,"x_max":965,"o":"m 500 -14 q 156 115 278 -14 q 35 465 35 244 q 157 815 35 686 q 500 944 279 944 q 843 815 721 944 q 965 465 965 685 q 843 115 965 244 q 500 -14 721 -14 m 500 189 q 687 252 632 189 q 742 465 742 315 q 687 678 742 615 q 500 742 632 742 q 313 678 367 742 q 258 465 258 615 q 313 252 258 315 q 500 189 367 189 z "},"1":{"ha":517,"x_min":14,"x_max":461,"o":"m 461 0 l 253 0 l 253 672 l 14 672 l 14 815 l 53 815 q 186 840 135 815 q 271 931 238 865 l 461 931 l 461 0 z "},"2":{"ha":894,"x_min":32,"x_max":861,"o":"m 858 0 l 32 0 l 32 133 q 92 328 32 257 q 299 447 151 399 l 538 525 q 626 573 601 547 q 651 643 651 599 q 610 727 651 700 q 460 754 568 754 q 287 717 336 754 q 238 600 238 681 l 238 582 l 33 582 l 33 600 q 141 847 33 749 q 467 944 249 944 q 765 863 668 944 q 861 640 861 781 q 790 453 861 522 q 588 347 719 383 l 385 292 q 282 243 313 269 q 251 164 251 217 l 494 188 l 858 188 l 858 0 z "},"3":{"ha":932,"x_min":35,"x_max":908,"o":"m 476 -14 q 144 72 253 -14 q 35 315 35 157 l 35 338 l 256 338 l 256 315 q 295 213 256 240 q 467 186 335 186 q 647 210 597 186 q 696 294 696 233 q 564 393 696 393 l 296 393 l 296 564 l 544 564 q 661 651 661 564 q 620 724 661 703 q 464 744 579 744 q 299 716 342 744 q 256 615 256 688 l 256 608 l 35 608 l 35 615 q 148 856 35 767 q 482 944 261 944 q 769 881 669 944 q 868 696 868 818 q 821 564 868 615 q 683 501 774 513 l 683 486 q 908 261 908 454 q 795 57 908 128 q 476 -14 682 -14 z "},"4":{"ha":981,"x_min":21,"x_max":961,"o":"m 819 0 l 611 0 l 611 178 l 21 178 l 21 319 l 578 931 l 819 931 l 819 365 l 961 365 l 961 178 l 819 178 l 819 0 m 311 365 l 611 365 l 611 690 l 596 690 l 311 381 l 311 365 z "},"5":{"ha":965,"x_min":44,"x_max":921,"o":"m 489 -14 q 44 289 44 -14 l 44 301 l 260 301 l 260 289 q 311 202 260 228 q 492 176 363 176 q 655 208 610 176 q 700 315 700 239 q 656 424 700 393 q 493 456 611 456 q 341 442 394 456 q 263 392 288 428 l 247 393 l 247 392 l 51 397 l 104 931 l 871 931 l 871 743 l 289 743 l 260 500 l 272 499 q 381 584 301 547 q 578 621 460 621 q 834 542 747 621 q 921 318 921 464 q 813 74 921 163 q 489 -14 704 -14 z "},"6":{"ha":978,"x_min":36,"x_max":936,"o":"m 514 -14 q 149 101 261 -14 q 36 464 36 215 q 159 822 36 700 q 496 944 282 944 q 800 860 686 944 q 914 632 914 775 l 914 621 l 682 621 l 682 632 q 639 719 682 693 q 496 744 596 744 q 312 692 365 744 q 258 500 258 640 l 258 439 l 274 439 q 383 538 306 500 q 579 575 461 575 q 844 504 753 575 q 936 292 936 433 q 827 68 936 150 q 514 -14 718 -14 m 503 186 q 671 215 624 186 q 718 307 718 243 q 672 402 718 374 q 504 431 625 431 q 326 402 376 431 q 275 310 275 374 q 326 216 275 246 q 503 186 378 186 z "},"7":{"ha":821,"x_min":14,"x_max":818,"o":"m 428 0 l 188 0 q 215 225 188 119 q 281 400 243 331 q 381 538 318 469 q 489 643 444 607 q 601 728 533 679 l 601 743 l 14 743 l 14 931 l 818 931 l 818 763 q 647 588 711 661 q 528 423 582 514 q 451 231 474 332 q 428 0 428 129 z "},"8":{"ha":942,"x_min":26,"x_max":915,"o":"m 472 -14 q 144 53 261 -14 q 26 256 26 121 q 247 486 26 440 l 247 501 q 104 567 154 517 q 54 700 54 618 q 162 879 54 814 q 471 944 269 944 q 782 880 675 944 q 889 700 889 815 q 839 567 889 618 q 694 501 789 517 l 694 486 q 915 256 915 444 q 798 53 915 121 q 472 -14 681 -14 m 471 551 q 635 574 589 551 q 681 647 681 597 q 636 722 681 700 q 471 744 592 744 q 307 722 351 744 q 263 647 263 699 q 309 574 263 597 q 471 551 356 551 m 471 186 q 653 212 603 186 q 704 299 704 238 q 654 383 704 358 q 471 408 604 408 q 288 383 338 408 q 238 299 238 358 q 288 212 238 238 q 471 186 338 186 z "},"9":{"ha":978,"x_min":36,"x_max":936,"o":"m 485 -14 q 180 71 293 -14 q 67 299 67 156 l 67 310 l 299 310 l 299 299 q 341 212 299 238 q 485 186 383 186 q 663 240 611 186 q 714 433 714 293 l 714 494 l 699 494 q 589 394 667 433 q 393 356 511 356 q 128 426 219 356 q 36 639 36 497 q 145 863 36 781 q 458 944 254 944 q 824 831 711 944 q 936 471 936 718 q 815 109 936 232 q 485 -14 694 -14 m 469 500 q 647 529 596 500 q 697 624 697 558 q 646 715 697 686 q 469 744 594 744 q 301 716 349 744 q 254 624 254 688 q 301 528 254 557 q 469 500 347 500 z "},"\r":{"ha":833,"x_min":0,"x_max":0,"o":""}," ":{"ha":214,"x_min":0,"x_max":0,"o":""},"!":{"ha":410,"x_min":71,"x_max":339,"o":"m 310 306 l 100 306 q 85 572 100 364 q 71 833 71 781 l 71 931 l 339 931 l 339 833 q 324 572 339 781 q 310 306 310 363 m 324 0 l 86 0 l 86 226 l 324 226 l 324 0 z "},"\"":{"ha":579,"x_min":31,"x_max":549,"o":"m 504 529 l 375 529 l 332 729 l 332 931 l 549 931 l 549 729 l 504 529 m 204 529 l 75 529 l 31 729 l 31 931 l 247 931 l 247 729 l 204 529 z "},"#":{"ha":1203,"x_min":28,"x_max":1175,"o":"m 317 0 l 113 0 l 186 185 l 28 185 l 28 371 l 261 371 l 322 531 l 121 531 l 121 718 l 397 718 l 481 931 l 685 931 l 600 718 l 800 718 l 883 931 l 1088 931 l 1004 718 l 1175 718 l 1175 531 l 929 531 l 868 371 l 1081 371 l 1081 185 l 793 185 l 721 0 l 517 0 l 589 185 l 390 185 l 317 0 m 522 535 l 457 368 l 668 368 l 733 535 l 522 535 z "},"$":{"ha":921,"x_min":29,"x_max":892,"o":"m 575 -139 l 381 -139 l 381 -8 q 126 91 214 10 q 38 314 38 172 l 38 322 l 246 322 l 246 297 q 293 203 246 231 q 478 176 340 176 q 641 196 599 176 q 683 264 683 215 q 656 326 683 306 q 556 358 628 346 l 294 396 q 29 657 29 438 q 115 845 29 764 q 381 942 201 926 l 381 1069 l 575 1069 l 575 936 q 800 828 725 911 q 875 617 875 744 l 875 608 l 665 608 l 665 628 q 617 726 665 697 q 435 754 569 754 q 282 733 325 754 q 239 665 239 711 q 263 607 239 625 q 347 578 288 589 l 608 536 q 892 274 892 490 q 813 88 892 165 q 575 -8 735 10 l 575 -139 z "},"%":{"ha":1131,"x_min":21,"x_max":1110,"o":"m 265 482 q 86 545 151 482 q 21 714 21 608 q 86 883 21 819 q 265 947 151 947 q 446 883 381 947 q 511 714 511 819 q 446 545 511 608 q 265 482 381 482 m 271 0 l 69 0 l 860 931 l 1061 931 l 271 0 m 190 640 q 201 629 190 640 q 265 618 211 618 q 341 640 319 618 q 363 714 363 661 q 341 789 363 767 q 265 811 319 811 q 191 789 213 811 q 169 714 169 767 q 190 640 169 661 m 1044 48 q 1011 16 1044 48 q 864 -15 978 -15 q 684 48 750 -15 q 618 217 618 111 q 684 385 618 322 q 864 449 750 449 q 1044 385 978 449 q 1110 217 1110 322 q 1044 48 1110 111 m 788 142 q 799 132 788 142 q 864 121 810 121 q 940 142 918 121 q 961 217 961 164 q 940 292 961 269 q 864 314 918 314 q 788 292 810 314 q 767 217 767 269 q 788 142 767 164 z "},"&":{"ha":1029,"x_min":25,"x_max":1015,"o":"m 446 -14 q 25 258 25 -14 q 85 416 25 358 q 249 486 144 474 l 249 501 q 110 565 158 511 q 63 700 63 619 q 428 946 63 946 l 596 946 l 596 756 l 399 756 q 300 735 329 756 q 271 658 271 714 q 302 585 271 606 q 397 564 333 564 l 667 564 l 667 696 l 872 696 l 872 564 l 1015 564 l 1015 393 l 872 393 l 872 335 q 772 76 872 165 q 446 -14 672 -14 m 453 176 q 625 205 583 176 q 667 324 667 233 l 667 393 l 365 393 q 269 368 301 393 q 236 285 236 343 q 282 200 236 224 q 453 176 328 176 z "},"'":{"ha":278,"x_min":31,"x_max":247,"o":"m 204 529 l 75 529 l 31 729 l 31 931 l 247 931 l 247 729 l 204 529 z "},"(":{"ha":453,"x_min":38,"x_max":439,"o":"m 439 -3 l 333 -100 q 38 465 38 168 q 333 1031 38 763 l 439 933 q 303 706 340 799 q 267 465 267 613 q 303 225 267 318 q 439 -3 340 132 z "},")":{"ha":500,"x_min":46,"x_max":447,"o":"m 46 933 l 151 1031 q 447 465 447 763 q 151 -100 447 168 l 46 -3 q 181 225 144 132 q 218 465 218 318 q 181 706 218 613 q 46 933 144 799 z "},"*":{"ha":546,"x_min":21,"x_max":525,"o":"m 265 586 l 190 467 l 69 554 l 160 663 l 156 674 l 21 710 l 67 851 l 199 797 l 208 806 l 199 946 l 347 946 l 338 806 l 347 797 l 481 850 l 525 708 l 388 674 l 383 663 l 475 554 l 353 465 l 281 586 l 265 586 z "},"+":{"ha":710,"x_min":44,"x_max":665,"o":"m 444 156 l 265 156 l 265 379 l 44 379 l 44 551 l 265 551 l 265 775 l 444 775 l 444 551 l 665 551 l 665 379 l 444 379 l 444 156 z "},",":{"ha":351,"x_min":42,"x_max":310,"o":"m 124 -196 l 50 -196 l 50 -67 l 118 -67 q 150 -58 140 -67 q 160 -24 160 -50 l 160 0 l 42 0 l 42 243 l 310 243 l 310 -22 q 124 -196 310 -196 z "},"-":{"ha":601,"x_min":42,"x_max":560,"o":"m 560 321 l 42 321 l 42 500 l 560 500 l 560 321 z "},".":{"ha":351,"x_min":42,"x_max":310,"o":"m 310 0 l 42 0 l 42 243 l 310 243 l 310 0 z "},"/":{"ha":660,"x_min":-28,"x_max":694,"o":"m 194 -28 l -28 -28 l 472 958 l 694 958 l 194 -28 z "},":":{"ha":351,"x_min":42,"x_max":310,"o":"m 310 454 l 42 454 l 42 696 l 310 696 l 310 454 m 310 0 l 42 0 l 42 243 l 310 243 l 310 0 z "},";":{"ha":351,"x_min":42,"x_max":310,"o":"m 310 454 l 42 454 l 42 696 l 310 696 l 310 454 m 124 -196 l 50 -196 l 50 -67 l 118 -67 q 150 -58 140 -67 q 160 -24 160 -50 l 160 0 l 42 0 l 42 243 l 310 243 l 310 -22 q 124 -196 310 -196 z "},"<":{"ha":707,"x_min":38,"x_max":658,"o":"m 38 589 l 658 785 l 658 590 l 226 472 l 226 458 l 658 340 l 658 146 l 38 342 l 38 589 z "},"=":{"ha":710,"x_min":44,"x_max":667,"o":"m 667 535 l 44 535 l 44 706 l 667 706 l 667 535 m 665 222 l 44 222 l 44 394 l 665 394 l 665 222 z "},">":{"ha":707,"x_min":44,"x_max":665,"o":"m 665 342 l 44 146 l 44 340 l 476 458 l 476 472 l 44 590 l 44 785 l 665 589 l 665 342 z "},"?":{"ha":868,"x_min":14,"x_max":838,"o":"m 485 307 l 276 307 l 276 356 q 318 467 276 425 q 433 538 360 508 l 531 576 q 607 617 585 597 q 629 671 629 638 q 590 733 629 711 q 440 754 551 754 q 268 722 317 754 q 219 621 219 690 l 219 567 l 14 567 l 14 604 q 123 849 14 753 q 456 944 232 944 q 744 871 650 944 q 838 678 838 797 q 785 526 838 581 q 647 439 733 472 l 544 399 q 497 367 508 383 q 485 324 485 351 l 485 307 m 501 0 l 263 0 l 263 226 l 501 226 l 501 0 z "},"@":{"ha":1261,"x_min":25,"x_max":1233,"o":"m 542 57 q 376 127 440 57 q 313 340 313 197 q 377 550 313 478 q 546 622 442 622 q 666 585 619 622 q 724 485 713 547 l 735 485 l 735 611 l 917 611 l 917 276 q 975 213 917 213 q 1040 249 1022 213 q 1058 393 1058 286 q 964 663 1058 583 q 646 743 869 743 q 308 653 407 743 q 210 339 210 563 q 299 37 210 124 q 597 -50 389 -50 q 821 -19 719 -50 l 854 -158 q 575 -207 718 -207 q 172 -62 318 -207 q 25 339 25 82 q 196 759 25 603 q 657 915 367 915 q 1081 779 928 915 q 1233 411 1233 643 q 1159 152 1233 247 q 961 57 1085 57 q 806 94 865 57 q 731 194 747 131 l 719 194 q 662 97 706 136 q 542 57 618 57 m 530 449 q 517 433 530 449 q 504 340 504 417 q 530 231 504 264 q 614 199 556 199 q 724 318 724 199 l 724 363 q 614 481 724 481 q 530 449 556 481 z "},"A":{"ha":1100,"x_min":-7,"x_max":1107,"o":"m 226 0 l -7 0 l 400 931 l 697 931 l 1107 0 l 868 0 l 781 206 l 315 206 l 226 0 m 483 596 l 396 393 l 700 393 l 613 596 l 556 740 l 540 740 l 483 596 z "},"B":{"ha":963,"x_min":51,"x_max":942,"o":"m 636 0 l 51 0 l 51 931 l 610 931 q 828 872 753 931 q 903 704 903 814 q 686 494 903 510 l 686 482 q 877 413 813 472 q 942 258 942 354 q 865 68 942 136 q 636 0 789 0 m 260 743 l 260 561 l 586 561 q 669 583 643 561 q 694 651 694 604 q 668 722 694 700 q 583 743 642 743 l 260 743 m 260 389 l 260 188 l 611 188 q 703 210 675 188 q 731 289 731 233 q 703 366 731 343 q 611 389 675 389 l 260 389 z "},"C":{"ha":1042,"x_min":35,"x_max":1007,"o":"m 532 -14 q 169 117 303 -14 q 35 465 35 247 q 169 814 35 683 q 532 944 303 944 q 878 842 750 944 q 1007 564 1007 740 l 1007 543 l 775 543 l 775 564 q 718 701 775 657 q 536 744 661 744 q 319 682 382 744 q 256 465 256 619 q 319 249 256 311 q 536 186 382 186 q 718 230 661 186 q 775 367 775 274 l 775 388 l 1007 388 l 1007 367 q 878 88 1007 190 q 532 -14 750 -14 z "},"D":{"ha":1038,"x_min":67,"x_max":1003,"o":"m 515 0 l 67 0 l 67 931 l 515 931 q 872 807 740 931 q 1003 465 1003 683 q 872 124 1003 247 q 515 0 740 0 m 515 743 l 275 743 l 275 188 l 515 188 q 722 245 663 188 q 781 465 781 303 q 722 685 781 628 q 515 743 663 743 z "},"E":{"ha":882,"x_min":56,"x_max":843,"o":"m 843 0 l 56 0 l 56 931 l 843 931 l 843 743 l 264 743 l 264 561 l 822 561 l 822 375 l 264 375 l 264 188 l 843 188 l 843 0 z "},"F":{"ha":876,"x_min":56,"x_max":843,"o":"m 264 0 l 56 0 l 56 931 l 843 931 l 843 743 l 264 743 l 264 533 l 822 533 l 822 347 l 264 347 l 264 0 z "},"G":{"ha":1075,"x_min":35,"x_max":1029,"o":"m 494 -14 q 158 116 282 -14 q 35 465 35 246 q 174 815 35 685 q 551 944 313 944 q 899 848 771 944 q 1028 585 1028 751 l 1028 574 l 796 574 l 796 585 q 737 706 796 667 q 546 744 678 744 q 321 682 386 744 q 256 465 256 619 q 319 249 256 311 q 536 186 382 186 q 757 217 697 186 q 821 338 817 249 l 506 338 l 506 492 l 1029 492 l 1029 0 l 836 0 l 836 200 l 825 200 q 494 -14 769 -14 z "},"H":{"ha":1014,"x_min":56,"x_max":958,"o":"m 264 0 l 56 0 l 56 931 l 264 931 l 264 561 l 750 561 l 750 931 l 958 931 l 958 0 l 750 0 l 750 374 l 264 374 l 264 0 z "},"I":{"ha":318,"x_min":56,"x_max":264,"o":"m 264 0 l 56 0 l 56 931 l 264 931 l 264 0 z "},"J":{"ha":900,"x_min":21,"x_max":851,"o":"m 435 -14 q 119 86 217 -14 q 21 378 21 186 l 21 418 l 242 418 l 242 378 q 278 229 242 269 q 435 189 315 189 q 592 228 553 189 q 631 368 631 267 l 631 931 l 851 931 l 851 368 q 753 84 851 182 q 435 -14 654 -14 z "},"K":{"ha":990,"x_min":56,"x_max":993,"o":"m 264 0 l 56 0 l 56 931 l 264 931 l 264 561 l 496 561 l 743 931 l 993 931 l 669 472 l 989 0 l 739 0 l 499 358 l 264 358 l 264 0 z "},"L":{"ha":846,"x_min":56,"x_max":818,"o":"m 818 0 l 56 0 l 56 931 l 264 931 l 264 188 l 818 188 l 818 0 z "},"M":{"ha":1292,"x_min":56,"x_max":1238,"o":"m 264 0 l 56 0 l 56 931 l 338 931 l 556 472 l 643 254 l 658 254 l 743 472 l 954 931 l 1238 931 l 1238 0 l 1029 0 l 1029 472 l 1036 618 l 1021 618 l 967 472 l 772 56 l 519 56 l 325 472 l 271 618 l 256 618 l 264 472 l 264 0 z "},"N":{"ha":1008,"x_min":56,"x_max":953,"o":"m 264 0 l 56 0 l 56 931 l 278 931 l 611 490 l 739 294 l 754 294 l 744 482 l 744 931 l 953 931 l 953 0 l 731 0 l 388 444 l 269 619 l 256 619 l 264 449 l 264 0 z "},"O":{"ha":1075,"x_min":35,"x_max":1040,"o":"m 535 -14 q 169 117 304 -14 q 35 465 35 247 q 169 814 35 683 q 535 944 304 944 q 905 815 769 944 q 1040 465 1040 685 q 905 116 1040 246 q 535 -14 769 -14 m 318 249 q 349 217 318 249 q 535 186 381 186 q 753 249 689 186 q 818 465 818 311 q 753 682 818 619 q 535 744 689 744 q 318 682 381 744 q 256 465 256 619 q 318 249 256 311 z "},"P":{"ha":914,"x_min":56,"x_max":896,"o":"m 264 0 l 56 0 l 56 931 l 542 931 q 801 842 706 931 q 896 594 896 753 q 800 347 896 436 q 542 257 704 257 l 264 257 l 264 0 m 519 743 l 264 743 l 264 444 l 519 444 q 649 477 610 444 q 689 594 689 510 q 649 710 689 678 q 519 743 608 743 z "},"Q":{"ha":1075,"x_min":35,"x_max":1040,"o":"m 908 -196 l 638 -196 l 493 -12 q 158 128 281 0 q 35 465 35 257 q 169 814 35 683 q 535 944 304 944 q 905 815 769 944 q 1040 465 1040 685 q 958 177 1040 296 q 724 13 875 58 l 908 -196 m 318 249 q 349 217 318 249 q 535 186 381 186 q 753 249 689 186 q 818 465 818 311 q 753 682 818 619 q 535 744 689 744 q 318 682 381 744 q 256 465 256 619 q 318 249 256 311 z "},"R":{"ha":961,"x_min":56,"x_max":951,"o":"m 264 0 l 56 0 l 56 931 l 569 931 q 835 858 742 931 q 929 651 929 785 q 667 393 929 418 l 667 382 q 756 336 725 367 q 817 250 788 306 l 951 0 l 710 0 l 582 242 q 517 317 553 297 q 401 338 481 338 l 264 338 l 264 0 m 264 743 l 264 494 l 568 494 q 678 522 644 494 q 711 619 711 549 q 677 715 711 688 q 568 743 643 743 l 264 743 z "},"S":{"ha":921,"x_min":29,"x_max":892,"o":"m 478 -14 q 151 69 265 -14 q 38 314 38 153 l 38 322 l 246 322 l 246 297 q 293 203 246 231 q 478 176 340 176 q 641 196 599 176 q 683 264 683 215 q 656 326 683 306 q 556 358 628 346 l 294 396 q 29 657 29 438 q 134 860 29 776 q 456 944 239 944 q 769 857 664 944 q 875 617 875 769 l 875 608 l 665 608 l 665 628 q 617 726 665 697 q 435 754 569 754 q 282 733 325 754 q 239 665 239 711 q 263 607 239 625 q 347 578 288 589 l 608 536 q 892 274 892 490 q 789 68 892 150 q 478 -14 686 -14 z "},"T":{"ha":939,"x_min":19,"x_max":919,"o":"m 574 0 l 365 0 l 365 743 l 19 743 l 19 931 l 919 931 l 919 743 l 574 743 l 574 0 z "},"U":{"ha":1013,"x_min":49,"x_max":963,"o":"m 506 -14 q 165 92 282 -14 q 49 389 49 199 l 49 931 l 257 931 l 257 404 q 311 237 257 285 q 506 189 365 189 q 701 237 647 189 q 754 404 754 285 l 754 931 l 963 931 l 963 389 q 847 92 963 199 q 506 -14 731 -14 z "},"V":{"ha":1047,"x_min":-11,"x_max":1058,"o":"m 672 0 l 375 0 l -11 931 l 240 931 l 519 211 l 533 211 l 808 931 l 1058 931 l 672 0 z "},"W":{"ha":1518,"x_min":15,"x_max":1501,"o":"m 544 0 l 235 0 l 15 931 l 249 931 l 361 403 l 393 199 l 408 199 l 451 403 l 607 931 l 917 931 l 1071 403 l 1114 199 l 1129 199 l 1161 403 l 1274 931 l 1501 931 l 1281 0 l 971 0 l 832 465 l 767 733 l 751 733 l 686 465 l 544 0 z "},"X":{"ha":1058,"x_min":-7,"x_max":1065,"o":"m 265 0 l -7 0 l 356 460 l 356 475 l -7 931 l 265 931 l 526 599 l 542 599 l 793 931 l 1065 931 l 704 471 l 704 456 l 1065 0 l 793 0 l 533 336 l 518 336 l 265 0 z "},"Y":{"ha":1011,"x_min":-15,"x_max":1026,"o":"m 607 0 l 397 0 l 397 308 l -15 931 l 242 931 l 419 658 l 497 533 l 513 533 l 590 658 l 768 931 l 1026 931 l 607 307 l 607 0 z "},"Z":{"ha":951,"x_min":40,"x_max":913,"o":"m 913 0 l 40 0 l 40 188 l 588 728 l 588 743 l 53 743 l 53 931 l 901 931 l 901 743 l 336 203 l 336 188 l 913 188 l 913 0 z "},"[":{"ha":415,"x_min":56,"x_max":401,"o":"m 401 -83 l 56 -83 l 56 1014 l 401 1014 l 401 842 l 249 842 l 249 89 l 401 89 l 401 -83 z "},"\\":{"ha":667,"x_min":-28,"x_max":694,"o":"m 694 -28 l 472 -28 l -28 958 l 194 958 l 694 -28 z "},"]":{"ha":442,"x_min":13,"x_max":358,"o":"m 13 89 l 165 89 l 165 842 l 13 842 l 13 1014 l 358 1014 l 358 -83 l 13 -83 l 13 89 z "},"^":{"ha":706,"x_min":35,"x_max":671,"o":"m 229 389 l 35 389 l 231 931 l 476 931 l 671 389 l 476 389 l 360 742 l 346 742 l 229 389 z "},"_":{"ha":528,"x_min":14,"x_max":514,"o":"m 514 -149 l 14 -149 l 14 0 l 514 0 l 514 -149 z "},"a":{"ha":808,"x_min":29,"x_max":758,"o":"m 269 -14 q 93 35 157 -14 q 29 172 29 85 q 254 354 29 331 l 553 385 l 553 411 q 519 502 553 478 q 401 526 486 526 q 287 502 321 526 q 253 419 253 478 l 253 414 l 43 414 l 43 418 q 144 629 43 549 q 417 710 246 710 q 672 629 586 710 q 758 408 758 549 l 758 0 l 564 0 l 564 160 l 553 160 q 456 32 528 78 q 269 -14 383 -14 m 239 186 q 329 133 239 133 q 494 163 439 133 q 553 265 549 193 l 311 238 q 239 186 239 232 z "},"b":{"ha":904,"x_min":56,"x_max":874,"o":"m 249 0 l 56 0 l 56 931 l 264 931 l 264 511 l 275 511 q 361 656 293 603 q 549 710 429 710 q 788 613 703 710 q 874 347 874 515 q 786 83 874 181 q 539 -14 699 -14 q 261 193 299 -14 l 249 193 l 249 0 m 264 343 q 315 215 264 254 q 467 176 365 176 q 616 215 569 176 q 663 347 663 254 q 617 481 663 442 q 468 519 571 519 q 314 481 364 519 q 264 354 264 443 l 264 343 z "},"c":{"ha":838,"x_min":35,"x_max":803,"o":"m 426 -14 q 141 84 247 -14 q 35 347 35 182 q 141 612 35 514 q 426 710 247 710 q 699 627 594 710 q 803 410 803 544 l 803 390 l 596 390 l 596 401 q 422 522 596 522 q 285 482 328 522 q 242 347 242 442 q 285 213 242 253 q 422 174 328 174 q 596 294 596 174 l 596 306 l 803 306 l 803 286 q 699 69 803 151 q 426 -14 594 -14 z "},"d":{"ha":904,"x_min":31,"x_max":850,"o":"m 367 -14 q 119 83 207 -14 q 31 347 31 181 q 116 613 31 515 q 356 710 201 710 q 543 656 475 710 q 629 511 611 603 l 642 511 l 642 931 l 850 931 l 850 0 l 656 0 l 656 193 l 644 193 q 367 -14 604 -14 m 242 347 q 288 215 242 254 q 438 176 335 176 q 591 215 540 176 q 642 343 642 254 l 642 354 q 591 481 642 443 q 438 519 540 519 q 288 481 335 519 q 242 347 242 442 z "},"e":{"ha":833,"x_min":35,"x_max":800,"o":"m 425 -14 q 140 77 244 -14 q 35 347 35 168 q 141 611 35 513 q 421 710 247 710 q 697 622 594 710 q 800 372 800 533 q 794 306 800 353 l 228 306 q 275 188 232 224 q 418 153 318 153 q 547 176 508 153 q 585 244 585 199 l 585 258 l 793 258 l 793 243 q 692 58 793 129 q 425 -14 590 -14 m 552 516 q 530 532 552 516 q 417 547 508 547 q 281 515 325 547 q 231 415 238 483 l 600 415 q 552 516 596 485 z "},"f":{"ha":549,"x_min":13,"x_max":535,"o":"m 319 0 l 111 0 l 111 524 l 13 524 l 13 696 l 115 696 q 224 867 132 804 q 474 931 317 931 l 535 931 l 535 779 l 440 779 q 338 762 368 779 q 311 696 307 744 l 535 696 l 535 524 l 319 524 l 319 0 z "},"g":{"ha":896,"x_min":35,"x_max":840,"o":"m 361 71 q 121 156 207 71 q 35 390 35 242 q 124 624 35 538 q 369 710 214 710 q 548 663 478 710 q 635 528 618 617 l 646 528 l 646 696 l 840 696 l 840 101 q 444 -250 840 -250 q 176 -178 274 -250 q 78 25 78 -106 l 286 25 q 320 -56 286 -35 q 458 -76 354 -76 q 597 -44 561 -76 q 632 88 632 -12 l 632 244 l 621 244 q 538 117 603 164 q 361 71 474 71 m 290 498 q 267 482 290 498 q 244 390 244 467 q 289 282 244 314 q 433 250 333 250 q 583 281 535 250 q 632 383 632 313 l 632 399 q 584 499 632 468 q 436 529 536 529 q 290 498 335 529 z "},"h":{"ha":886,"x_min":56,"x_max":836,"o":"m 264 0 l 56 0 l 56 931 l 264 931 l 264 483 l 275 483 q 363 646 293 582 q 557 710 432 710 q 765 631 693 710 q 836 426 836 553 l 836 0 l 628 0 l 628 364 q 587 487 628 451 q 447 522 546 522 q 305 481 346 522 q 264 349 264 439 l 264 0 z "},"i":{"ha":318,"x_min":56,"x_max":264,"o":"m 264 767 l 56 767 l 56 931 l 264 931 l 264 767 m 264 0 l 56 0 l 56 696 l 264 696 l 264 0 z "},"j":{"ha":319,"x_min":-51,"x_max":264,"o":"m 264 767 l 56 767 l 56 931 l 264 931 l 264 767 m -17 -236 l -51 -236 l -51 -81 l -14 -81 q 56 -14 56 -81 l 56 696 l 264 696 l 264 19 q 193 -178 264 -121 q -17 -236 122 -236 z "},"k":{"ha":842,"x_min":56,"x_max":847,"o":"m 264 0 l 56 0 l 56 931 l 264 931 l 264 438 l 422 438 l 600 696 l 847 696 l 593 360 l 843 0 l 597 0 l 424 251 l 264 251 l 264 0 z "},"l":{"ha":318,"x_min":56,"x_max":264,"o":"m 264 0 l 56 0 l 56 931 l 264 931 l 264 0 z "},"m":{"ha":1375,"x_min":56,"x_max":1325,"o":"m 264 0 l 56 0 l 56 696 l 249 696 l 249 485 l 260 485 q 336 647 274 583 q 521 710 399 710 q 701 647 636 710 q 779 482 767 585 l 792 482 q 869 646 806 582 q 1058 710 933 710 q 1256 633 1188 710 q 1325 433 1325 557 l 1325 0 l 1117 0 l 1117 364 q 1081 487 1117 451 q 957 522 1046 522 q 829 483 864 522 q 794 351 794 444 l 794 0 l 586 0 l 586 364 q 551 487 586 451 q 426 522 515 522 q 299 483 333 522 q 264 351 264 444 l 264 0 z "},"n":{"ha":875,"x_min":56,"x_max":825,"o":"m 264 0 l 56 0 l 56 696 l 249 696 l 249 482 l 261 482 q 347 644 276 579 q 544 710 417 710 q 753 633 682 710 q 825 433 825 556 l 825 0 l 617 0 l 617 364 q 577 485 617 449 q 443 522 538 522 q 305 482 346 522 q 264 351 264 442 l 264 0 z "},"o":{"ha":853,"x_min":29,"x_max":824,"o":"m 715 85 q 660 35 715 85 q 426 -14 606 -14 q 138 85 247 -14 q 29 347 29 183 q 138 611 29 513 q 426 710 247 710 q 715 611 606 710 q 824 347 824 513 q 715 85 824 183 m 279 213 q 301 192 279 213 q 426 171 322 171 q 574 213 531 171 q 617 347 617 254 q 573 483 617 440 q 426 526 529 526 q 279 484 322 526 q 236 347 236 442 q 279 213 236 254 z "},"p":{"ha":904,"x_min":56,"x_max":874,"o":"m 264 -236 l 56 -236 l 56 696 l 249 696 l 249 506 l 263 506 q 540 710 301 710 q 786 613 699 710 q 874 347 874 515 q 788 83 874 179 q 547 -14 703 -14 q 360 40 429 -14 q 274 188 292 93 l 264 188 l 264 -236 m 264 338 q 315 214 264 251 q 467 176 365 176 q 616 215 569 176 q 663 347 663 254 q 616 479 663 440 q 468 518 569 518 q 314 478 364 518 q 264 349 264 439 l 264 338 z "},"q":{"ha":904,"x_min":31,"x_max":850,"o":"m 357 -14 q 117 83 203 -14 q 31 347 31 179 q 118 613 31 515 q 364 710 206 710 q 642 506 603 710 l 656 506 l 656 696 l 850 696 l 850 -236 l 642 -236 l 642 188 l 631 188 q 544 40 613 93 q 357 -14 475 -14 m 288 479 q 265 460 288 479 q 242 347 242 440 q 288 215 242 254 q 438 176 335 176 q 591 214 540 176 q 642 338 642 251 l 642 349 q 591 478 642 439 q 438 518 540 518 q 288 479 335 518 z "},"r":{"ha":733,"x_min":56,"x_max":714,"o":"m 264 0 l 56 0 l 56 696 l 249 696 l 249 511 l 261 511 q 335 656 276 601 q 494 710 394 710 q 660 643 606 710 q 714 467 714 576 l 714 351 l 506 351 l 506 424 q 479 508 506 482 q 390 533 453 533 q 293 501 322 533 q 264 403 264 469 l 264 0 z "},"s":{"ha":781,"x_min":31,"x_max":751,"o":"m 407 -14 q 138 52 232 -14 q 43 239 43 118 l 43 243 l 251 243 l 251 231 q 285 168 251 185 q 408 151 318 151 q 517 165 489 151 q 546 211 546 179 q 526 252 546 240 q 443 272 506 264 l 247 296 q 31 490 31 319 q 117 649 31 588 q 374 710 203 710 q 638 645 546 710 q 731 454 731 581 l 731 450 l 522 450 l 522 458 q 490 524 522 504 q 367 544 458 544 q 263 531 290 544 q 236 482 236 517 q 258 441 236 454 q 347 419 281 428 l 496 401 q 692 338 633 386 q 751 203 751 290 q 659 45 751 104 q 407 -14 567 -14 z "},"t":{"ha":568,"x_min":3,"x_max":546,"o":"m 546 0 l 374 0 q 113 251 113 0 l 113 524 l 3 524 l 3 696 l 113 696 l 113 831 l 321 831 l 321 696 l 546 696 l 546 524 l 321 524 l 321 275 q 342 206 321 224 q 421 188 364 188 l 546 188 l 546 0 z "},"u":{"ha":886,"x_min":54,"x_max":835,"o":"m 343 -14 q 128 63 201 -14 q 54 263 54 140 l 54 696 l 263 696 l 263 332 q 303 210 263 247 q 442 172 344 172 q 584 213 542 172 q 626 343 626 253 l 626 696 l 835 696 l 835 0 l 640 0 l 640 213 l 629 213 q 542 51 614 115 q 343 -14 471 -14 z "},"v":{"ha":892,"x_min":0,"x_max":892,"o":"m 574 0 l 317 0 l 0 696 l 232 696 l 440 203 l 454 203 l 664 696 l 892 696 l 574 0 z "},"w":{"ha":1267,"x_min":0,"x_max":1267,"o":"m 450 0 l 190 0 l 0 696 l 215 696 l 297 378 l 326 161 l 340 161 l 396 399 l 501 696 l 769 696 l 874 399 l 929 161 l 943 161 l 974 378 l 1054 696 l 1267 696 l 1069 0 l 810 0 l 690 335 l 639 526 l 624 526 l 571 335 l 450 0 z "},"x":{"ha":869,"x_min":-6,"x_max":875,"o":"m 246 0 l -6 0 l 272 340 l 272 351 l -6 696 l 249 696 l 433 461 l 444 461 l 624 696 l 875 696 l 597 356 l 597 343 l 875 0 l 621 0 l 436 233 l 425 233 l 246 0 z "},"y":{"ha":863,"x_min":-7,"x_max":868,"o":"m 189 -236 l 75 -236 l 75 -47 l 246 -47 q 333 -3 313 -47 l -7 696 l 229 696 l 376 378 l 435 214 l 449 214 l 504 379 l 636 696 l 868 696 l 524 -50 q 400 -197 475 -157 q 189 -236 325 -236 z "},"z":{"ha":792,"x_min":26,"x_max":765,"o":"m 765 0 l 26 0 l 26 178 l 325 415 l 471 507 l 471 521 l 325 513 l 47 513 l 47 696 l 744 696 l 744 517 l 422 268 l 290 186 l 290 172 l 422 182 l 765 182 l 765 0 z "},"{":{"ha":478,"x_min":28,"x_max":453,"o":"m 453 -83 l 418 -83 q 219 -19 286 -83 q 153 157 153 44 l 153 294 q 135 351 153 335 q 71 367 118 367 l 28 367 l 28 564 l 71 564 q 135 580 118 564 q 153 636 153 596 l 153 774 q 219 950 153 886 q 418 1014 286 1014 l 453 1014 l 453 811 l 411 811 q 360 796 375 811 q 346 746 346 781 l 346 622 q 192 472 346 472 l 192 458 q 346 308 346 458 l 346 185 q 360 135 346 150 q 411 119 375 119 l 453 119 l 453 -83 z "},"|":{"ha":303,"x_min":56,"x_max":247,"o":"m 247 -139 l 56 -139 l 56 1069 l 247 1069 l 247 -139 z "},"}":{"ha":483,"x_min":29,"x_max":456,"o":"m 29 1014 l 65 1014 q 263 949 196 1014 q 331 774 331 885 l 331 636 q 348 580 331 596 q 413 564 365 564 l 456 564 l 456 367 l 413 367 q 348 351 365 367 q 331 294 331 335 l 331 157 q 263 -19 331 46 q 65 -83 196 -83 l 29 -83 l 29 119 l 71 119 q 122 135 107 119 q 138 185 138 150 l 138 308 q 290 458 138 458 l 290 472 q 138 622 138 472 l 138 746 q 122 796 138 781 q 71 811 107 811 l 29 811 l 29 1014 z "},"~":{"ha":794,"x_min":58,"x_max":739,"o":"m 233 335 l 58 335 l 58 411 q 224 594 58 594 q 342 563 269 594 l 442 532 q 532 506 513 506 q 565 546 565 506 l 565 583 l 739 583 l 739 499 q 589 329 739 329 q 436 364 535 329 l 336 396 q 272 418 292 418 q 233 371 233 418 l 233 335 z "}," ":{"ha":214,"x_min":0,"x_max":0,"o":""},"¡":{"ha":358,"x_min":44,"x_max":314,"o":"m 61 694 l 299 694 l 299 468 l 61 468 l 61 694 m 75 389 l 285 389 q 299 122 285 331 q 314 -139 314 -86 l 314 -236 l 44 -236 l 44 -139 q 60 123 44 -86 q 75 389 75 332 z "},"¢":{"ha":831,"x_min":35,"x_max":803,"o":"m 522 -139 l 329 -139 l 329 -6 q 113 113 192 19 q 35 347 35 207 q 113 583 35 489 q 329 701 192 676 l 329 833 l 522 833 l 522 701 q 727 601 651 679 q 803 410 803 524 l 803 390 l 596 390 l 596 401 q 422 522 596 522 q 285 482 328 522 q 242 347 242 442 q 285 213 242 253 q 422 174 328 174 q 596 294 596 174 l 596 306 l 803 306 l 803 286 q 727 94 803 172 q 522 -6 651 17 l 522 -139 z "},"£":{"ha":951,"x_min":42,"x_max":919,"o":"m 640 347 l 413 347 q 415 318 415 328 q 329 199 415 229 l 329 188 l 919 188 l 919 0 l 42 0 l 42 188 l 118 188 q 207 210 175 188 q 239 269 239 232 q 217 347 239 300 l 42 347 l 42 519 l 132 519 q 99 665 99 600 q 205 867 99 789 q 507 944 311 944 q 813 854 717 944 q 908 617 908 764 l 908 592 l 704 592 l 704 618 q 663 724 704 694 q 506 754 622 754 q 350 726 393 754 q 307 639 307 699 q 343 519 307 594 l 640 519 l 640 347 z "},"¥":{"ha":1054,"x_min":3,"x_max":1050,"o":"m 631 0 l 424 0 l 424 194 l 32 194 l 32 367 l 383 367 l 325 454 l 32 454 l 32 626 l 208 626 l 3 931 l 275 931 l 410 708 l 522 493 l 538 493 l 649 708 l 783 931 l 1050 931 l 846 626 l 1022 626 l 1022 454 l 729 454 l 671 367 l 1022 367 l 1022 194 l 631 194 l 631 0 z "},"¦":{"ha":332,"x_min":69,"x_max":263,"o":"m 263 521 l 69 521 l 69 1069 l 263 1069 l 263 521 m 263 -139 l 69 -139 l 69 410 l 263 410 l 263 -139 z "},"§":{"ha":775,"x_min":28,"x_max":749,"o":"m 407 -14 q 144 54 240 -14 q 49 240 49 122 l 49 246 l 257 246 l 257 233 q 288 165 257 185 q 413 146 319 146 q 515 160 488 146 q 543 204 543 174 q 523 242 543 231 q 446 263 503 254 l 215 294 q 28 436 28 319 q 65 523 28 489 q 169 563 103 557 l 169 574 q 28 733 28 606 q 117 889 28 828 q 368 950 207 950 q 631 882 535 950 q 728 696 728 814 l 728 690 l 519 690 l 519 703 q 488 770 519 751 q 361 789 457 789 q 260 775 288 789 q 233 731 233 761 q 253 692 233 704 q 332 674 274 681 l 590 639 q 749 506 749 619 q 710 415 749 451 q 607 374 672 379 l 607 361 q 708 308 667 347 q 749 201 749 269 q 659 47 749 107 q 407 -14 569 -14 m 301 425 l 449 407 q 543 453 543 390 q 527 488 543 476 q 472 506 511 500 l 326 524 q 233 479 233 538 q 249 442 233 454 q 301 425 265 431 z "},"©":{"ha":1071,"x_min":31,"x_max":1040,"o":"m 536 -8 q 167 120 304 -8 q 31 465 31 249 q 167 810 31 682 q 536 939 304 939 q 903 810 767 939 q 1040 465 1040 682 q 903 120 1040 249 q 536 -8 767 -8 m 273 213 q 312 176 273 213 q 536 139 351 139 q 799 213 721 139 q 876 465 876 286 q 799 718 876 644 q 536 792 721 792 q 273 718 351 792 q 194 465 194 644 q 273 213 194 286 m 540 214 q 341 282 414 214 q 268 465 268 350 q 340 649 268 581 q 540 717 413 717 q 728 658 656 717 q 800 504 800 600 l 800 493 l 650 493 l 650 501 q 540 579 650 579 q 447 553 475 579 q 418 465 418 528 q 447 377 418 403 q 540 351 475 351 q 650 429 650 351 l 650 438 l 800 438 l 800 426 q 728 272 800 331 q 540 214 656 214 z "},"ª":{"ha":310,"x_min":35,"x_max":275,"o":"m 115 728 q 35 785 35 728 q 111 840 35 832 l 200 850 q 192 877 200 869 q 158 885 183 885 q 115 857 115 885 l 115 856 l 40 856 l 40 858 q 73 921 40 897 q 163 944 106 944 q 275 844 275 944 l 275 732 l 206 732 l 206 774 l 201 774 q 115 728 189 728 m 108 789 q 139 775 108 775 q 203 811 203 775 l 128 801 q 108 789 108 800 z "},"«":{"ha":688,"x_min":35,"x_max":646,"o":"m 368 539 l 646 725 l 646 511 l 508 432 l 508 415 l 646 336 l 646 122 l 368 308 l 368 539 m 35 539 l 313 725 l 313 511 l 175 432 l 175 415 l 313 336 l 313 122 l 35 308 l 35 539 z "},"­":{"ha":833,"x_min":42,"x_max":560,"o":"m 560 321 l 42 321 l 42 500 l 560 500 l 560 321 z "},"®":{"ha":575,"x_min":28,"x_max":547,"o":"m 288 461 q 100 528 172 461 q 28 704 28 594 q 100 881 28 814 q 288 947 172 947 q 476 881 404 947 q 547 704 547 814 q 476 528 547 594 q 288 461 404 461 m 288 546 q 417 582 379 546 q 456 704 456 618 q 417 826 456 790 q 288 863 379 863 q 159 826 197 863 q 121 704 121 790 q 159 582 121 618 q 288 546 197 546 m 251 610 l 182 610 l 182 804 l 314 804 q 399 742 399 804 q 383 701 399 715 q 342 686 367 686 l 342 683 q 378 651 363 676 l 406 610 l 328 610 l 303 651 q 272 668 293 668 l 251 668 l 251 610 m 251 746 l 251 714 l 313 714 q 331 731 331 714 q 313 746 331 746 l 251 746 z "},"°":{"ha":329,"x_min":21,"x_max":307,"o":"m 269 722 q 250 704 269 722 q 164 686 231 686 q 59 722 97 686 q 21 815 21 757 q 59 909 21 874 q 164 944 97 944 q 269 909 231 944 q 307 815 307 874 q 269 722 307 757 m 123 780 q 129 775 123 780 q 164 769 135 769 q 206 780 193 769 q 218 815 218 790 q 164 863 218 863 q 123 851 135 863 q 111 815 111 840 q 123 780 111 790 z "},"±":{"ha":711,"x_min":44,"x_max":667,"o":"m 665 25 l 44 25 l 44 197 l 267 197 l 267 379 l 44 379 l 44 551 l 267 551 l 267 775 l 444 775 l 444 551 l 667 551 l 667 379 l 444 379 l 444 197 l 665 197 l 665 25 z "},"²":{"ha":528,"x_min":32,"x_max":500,"o":"m 489 472 l 40 472 l 40 532 q 72 635 40 599 q 167 692 104 672 l 300 733 q 340 752 329 743 q 351 778 351 761 q 335 808 351 799 q 271 818 319 818 q 199 805 219 818 q 178 758 178 792 l 178 746 l 32 746 l 32 764 q 95 892 32 840 q 279 944 158 944 q 443 901 386 944 q 500 788 500 858 q 462 697 500 729 q 342 646 424 664 l 211 614 q 183 576 183 604 l 379 597 l 489 597 l 489 472 z "},"³":{"ha":542,"x_min":31,"x_max":514,"o":"m 283 465 q 94 508 158 465 q 31 631 31 551 l 31 646 l 178 646 l 178 636 q 197 600 178 610 q 274 590 215 590 q 347 598 329 590 q 365 631 365 606 q 351 658 365 651 q 304 665 338 665 l 203 665 l 203 756 l 288 756 q 335 762 322 756 q 347 789 347 768 q 331 815 347 807 q 267 824 315 824 q 196 814 214 824 q 178 781 178 804 l 178 774 l 31 774 l 31 781 q 97 899 31 854 q 278 944 163 944 q 438 913 382 944 q 494 822 494 881 q 389 721 494 735 l 389 714 q 514 603 514 697 q 452 500 514 535 q 283 465 390 465 z "},"¶":{"ha":1033,"x_min":28,"x_max":978,"o":"m 669 0 l 461 0 l 461 375 l 369 375 q 121 445 214 375 q 28 651 28 515 q 121 860 28 789 q 369 931 214 931 l 669 931 l 669 0 m 978 0 l 769 0 l 769 931 l 978 931 l 978 0 z "},"·":{"ha":358,"x_min":44,"x_max":314,"o":"m 314 347 l 44 347 l 44 590 l 314 590 l 314 347 z "},"¹":{"ha":347,"x_min":13,"x_max":296,"o":"m 296 465 l 149 465 l 149 758 l 13 758 l 13 874 l 47 874 q 157 931 128 874 l 296 931 l 296 465 z "},"º":{"ha":310,"x_min":35,"x_max":275,"o":"m 242 757 q 226 742 242 757 q 154 728 210 728 q 67 758 99 728 q 35 836 35 788 q 67 915 35 885 q 154 944 99 944 q 242 915 210 944 q 275 836 275 886 q 242 757 275 786 m 154 796 q 190 806 179 796 q 200 836 200 815 q 190 867 200 857 q 154 876 179 876 q 110 836 110 876 q 154 796 110 796 z "},"»":{"ha":688,"x_min":42,"x_max":653,"o":"m 319 308 l 42 122 l 42 336 l 179 415 l 179 432 l 42 511 l 42 725 l 319 539 l 319 308 m 653 308 l 375 122 l 375 336 l 513 415 l 513 432 l 375 511 l 375 725 l 653 539 l 653 308 z "},"¼":{"ha":1108,"x_min":35,"x_max":1071,"o":"m 333 465 l 186 465 l 186 758 l 49 758 l 49 874 l 85 874 q 194 931 164 874 l 333 931 l 333 465 m 238 0 l 35 0 l 825 931 l 1028 931 l 238 0 m 989 0 l 842 0 l 842 90 l 563 90 l 563 206 l 815 465 l 989 465 l 989 221 l 1071 221 l 1071 90 l 989 90 l 989 0 m 728 221 l 842 221 l 842 336 l 831 336 l 728 232 l 728 221 z "},"½":{"ha":1161,"x_min":35,"x_max":1125,"o":"m 333 465 l 186 465 l 186 758 l 49 758 l 49 874 l 85 874 q 194 931 164 874 l 333 931 l 333 465 m 238 0 l 35 0 l 825 931 l 1028 931 l 238 0 m 1114 0 l 665 0 l 665 60 q 697 163 665 126 q 793 219 729 200 l 925 261 q 966 280 954 271 q 978 306 978 289 q 961 336 978 326 q 896 346 944 346 q 824 333 844 346 q 803 286 803 319 l 803 274 l 657 274 l 657 292 q 721 420 657 368 q 906 472 785 472 q 1069 429 1013 472 q 1125 315 1125 386 q 1087 224 1125 257 q 967 174 1049 192 l 836 142 q 808 104 808 132 l 1004 125 l 1114 125 l 1114 0 z "},"¾":{"ha":1204,"x_min":39,"x_max":1160,"o":"m 290 465 q 102 508 165 465 q 39 631 39 551 l 39 646 l 185 646 l 185 636 q 203 600 185 610 q 281 590 222 590 q 354 598 336 590 q 372 631 372 606 q 358 658 372 651 q 311 665 344 665 l 211 665 l 211 756 l 296 756 q 343 762 331 756 q 356 789 356 768 q 339 815 356 807 q 274 824 322 824 q 203 814 221 824 q 185 781 185 804 l 185 774 l 39 774 l 39 781 q 104 899 39 854 q 286 944 169 944 q 446 913 389 944 q 503 822 503 881 q 396 721 503 735 l 396 714 q 522 603 522 697 q 460 500 522 535 q 290 465 397 465 m 343 0 l 142 0 l 932 931 l 1133 931 l 343 0 m 1078 0 l 931 0 l 931 89 l 651 89 l 651 206 l 904 465 l 1078 465 l 1078 221 l 1160 221 l 1160 89 l 1078 89 l 1078 0 m 817 221 l 931 221 l 931 335 l 919 335 l 817 232 l 817 221 z "},"¿":{"ha":861,"x_min":25,"x_max":847,"o":"m 361 694 l 599 694 l 599 468 l 361 468 l 361 694 m 376 388 l 585 388 l 585 339 q 544 227 585 268 q 429 157 503 186 l 331 118 q 256 77 278 97 q 233 24 233 57 q 272 -38 233 -17 q 421 -60 310 -60 q 594 -28 544 -60 q 643 74 643 4 l 643 128 l 847 128 l 847 90 q 738 -154 847 -58 q 406 -250 629 -250 q 118 -176 211 -250 q 25 17 25 -103 q 77 168 25 114 q 214 256 129 222 l 317 296 q 365 327 353 311 q 376 371 376 343 l 376 388 z "},"À":{"ha":1100,"x_min":-7,"x_max":1107,"o":"m 661 1014 l 439 1014 l 182 1196 l 481 1196 l 661 1014 m 226 0 l -7 0 l 400 931 l 697 931 l 1107 0 l 868 0 l 781 206 l 315 206 l 226 0 m 483 596 l 396 393 l 700 393 l 613 596 l 556 740 l 540 740 l 483 596 z "},"Á":{"ha":1100,"x_min":-7,"x_max":1107,"o":"m 661 1014 l 438 1014 l 618 1196 l 917 1196 l 661 1014 m 226 0 l -7 0 l 400 931 l 697 931 l 1107 0 l 868 0 l 781 206 l 315 206 l 226 0 m 483 596 l 396 393 l 700 393 l 613 596 l 556 740 l 540 740 l 483 596 z "},"Â":{"ha":1100,"x_min":-7,"x_max":1107,"o":"m 464 1014 l 242 1014 l 425 1194 l 674 1194 l 858 1014 l 633 1014 l 557 1094 l 543 1094 l 464 1014 m 226 0 l -7 0 l 400 931 l 697 931 l 1107 0 l 868 0 l 781 206 l 315 206 l 226 0 m 483 596 l 396 393 l 700 393 l 613 596 l 556 740 l 540 740 l 483 596 z "},"Ã":{"ha":1100,"x_min":-7,"x_max":1107,"o":"m 431 1006 l 292 1006 l 292 1068 q 419 1210 292 1210 q 535 1179 465 1210 l 576 1161 q 636 1142 618 1142 q 669 1182 669 1142 l 669 1200 l 808 1200 l 808 1139 q 778 1035 808 1074 q 689 996 749 996 q 569 1026 639 996 l 515 1047 q 460 1065 479 1065 q 431 1032 431 1065 l 431 1006 m 226 0 l -7 0 l 400 931 l 697 931 l 1107 0 l 868 0 l 781 206 l 315 206 l 226 0 m 483 596 l 396 393 l 700 393 l 613 596 l 556 740 l 540 740 l 483 596 z "},"Ä":{"ha":1100,"x_min":-7,"x_max":1107,"o":"m 796 1014 l 599 1014 l 599 1197 l 796 1197 l 796 1014 m 501 1014 l 303 1014 l 303 1197 l 501 1197 l 501 1014 m 226 0 l -7 0 l 400 931 l 697 931 l 1107 0 l 868 0 l 781 206 l 315 206 l 226 0 m 483 596 l 396 393 l 700 393 l 613 596 l 556 740 l 540 740 l 483 596 z "},"Å":{"ha":1100,"x_min":-7,"x_max":1107,"o":"m 226 0 l -7 0 l 385 897 q 342 1015 342 944 q 399 1148 342 1099 q 549 1197 456 1197 q 699 1148 642 1197 q 756 1015 756 1099 q 713 897 756 944 l 1107 0 l 868 0 l 781 206 l 315 206 l 226 0 m 485 972 q 493 965 485 972 q 547 958 501 958 q 610 972 593 958 q 626 1015 626 985 q 610 1060 626 1047 q 547 1074 593 1074 q 485 1060 501 1074 q 468 1015 468 1047 q 485 972 468 985 m 483 596 l 396 393 l 700 393 l 613 596 l 556 740 l 540 740 l 483 596 z "},"Æ":{"ha":1635,"x_min":-8,"x_max":1596,"o":"m 250 0 l -8 0 l 679 931 l 1596 931 l 1596 743 l 1017 743 l 1017 561 l 1575 561 l 1575 375 l 1017 375 l 1017 188 l 1596 188 l 1596 0 l 807 0 l 807 206 l 400 206 l 250 0 m 796 746 l 538 393 l 807 393 l 807 746 l 796 746 z "},"Ç":{"ha":1042,"x_min":35,"x_max":1007,"o":"m 592 -318 l 454 -318 l 454 -207 l 596 -207 q 618 -189 618 -207 q 596 -169 618 -169 l 458 -169 l 458 -10 q 148 138 261 11 q 35 465 35 265 q 169 814 35 683 q 532 944 303 944 q 878 842 750 944 q 1007 564 1007 740 l 1007 543 l 775 543 l 775 564 q 718 701 775 657 q 536 744 661 744 q 319 682 382 744 q 256 465 256 619 q 319 249 256 311 q 536 186 382 186 q 718 230 661 186 q 775 367 775 274 l 775 388 l 1007 388 l 1007 367 q 889 97 1007 197 q 568 -12 771 -4 l 568 -60 l 592 -60 q 701 -94 663 -60 q 739 -187 739 -128 q 701 -283 739 -249 q 592 -318 663 -318 z "},"È":{"ha":882,"x_min":56,"x_max":843,"o":"m 560 1014 l 338 1014 l 81 1196 l 379 1196 l 560 1014 m 843 0 l 56 0 l 56 931 l 843 931 l 843 743 l 264 743 l 264 561 l 822 561 l 822 375 l 264 375 l 264 188 l 843 188 l 843 0 z "},"É":{"ha":882,"x_min":56,"x_max":843,"o":"m 560 1014 l 336 1014 l 517 1196 l 815 1196 l 560 1014 m 843 0 l 56 0 l 56 931 l 843 931 l 843 743 l 264 743 l 264 561 l 822 561 l 822 375 l 264 375 l 264 188 l 843 188 l 843 0 z "},"Ê":{"ha":882,"x_min":56,"x_max":843,"o":"m 363 1014 l 140 1014 l 324 1194 l 572 1194 l 756 1014 l 532 1014 l 456 1094 l 442 1094 l 363 1014 m 843 0 l 56 0 l 56 931 l 843 931 l 843 743 l 264 743 l 264 561 l 822 561 l 822 375 l 264 375 l 264 188 l 843 188 l 843 0 z "},"Ë":{"ha":882,"x_min":56,"x_max":843,"o":"m 694 1014 l 497 1014 l 497 1197 l 694 1197 l 694 1014 m 399 1014 l 201 1014 l 201 1197 l 399 1197 l 399 1014 m 843 0 l 56 0 l 56 931 l 843 931 l 843 743 l 264 743 l 264 561 l 822 561 l 822 375 l 264 375 l 264 188 l 843 188 l 843 0 z "},"Ì":{"ha":318,"x_min":-208,"x_max":271,"o":"m 271 1014 l 49 1014 l -208 1196 l 90 1196 l 271 1014 m 264 0 l 56 0 l 56 931 l 264 931 l 264 0 z "},"Í":{"ha":318,"x_min":47,"x_max":526,"o":"m 271 1014 l 47 1014 l 228 1196 l 526 1196 l 271 1014 m 264 0 l 56 0 l 56 931 l 264 931 l 264 0 z "},"Î":{"ha":318,"x_min":-149,"x_max":467,"o":"m 74 1014 l -149 1014 l 35 1194 l 283 1194 l 467 1014 l 243 1014 l 167 1094 l 153 1094 l 74 1014 m 264 0 l 56 0 l 56 931 l 264 931 l 264 0 z "},"Ï":{"ha":318,"x_min":-87,"x_max":406,"o":"m 406 1014 l 208 1014 l 208 1197 l 406 1197 l 406 1014 m 110 1014 l -87 1014 l -87 1197 l 110 1197 l 110 1014 m 264 0 l 56 0 l 56 931 l 264 931 l 264 0 z "},"Ð":{"ha":1128,"x_min":14,"x_max":1093,"o":"m 606 0 l 157 0 l 157 372 l 14 372 l 14 558 l 157 558 l 157 931 l 606 931 q 962 807 831 931 q 1093 465 1093 683 q 962 124 1093 247 q 606 0 831 0 m 642 372 l 365 372 l 365 188 l 606 188 q 812 245 753 188 q 871 465 871 303 q 812 685 871 628 q 606 743 753 743 l 365 743 l 365 558 l 642 558 l 642 372 z "},"Ñ":{"ha":1008,"x_min":56,"x_max":953,"o":"m 385 1006 l 246 1006 l 246 1068 q 375 1210 246 1210 q 490 1179 418 1210 l 531 1161 q 590 1142 572 1142 q 625 1182 625 1142 l 625 1200 l 763 1200 l 763 1139 q 733 1035 763 1074 q 643 996 703 996 q 524 1026 592 996 l 469 1047 q 414 1065 433 1065 q 385 1032 385 1065 l 385 1006 m 264 0 l 56 0 l 56 931 l 278 931 l 611 490 l 739 294 l 754 294 l 744 482 l 744 931 l 953 931 l 953 0 l 731 0 l 388 444 l 269 619 l 256 619 l 264 449 l 264 0 z "},"Ò":{"ha":1075,"x_min":35,"x_max":1040,"o":"m 649 1014 l 426 1014 l 169 1196 l 468 1196 l 649 1014 m 535 -14 q 169 117 304 -14 q 35 465 35 247 q 169 814 35 683 q 535 944 304 944 q 905 815 769 944 q 1040 465 1040 685 q 905 116 1040 246 q 535 -14 769 -14 m 318 249 q 349 217 318 249 q 535 186 381 186 q 753 249 689 186 q 818 465 818 311 q 753 682 818 619 q 535 744 689 744 q 318 682 381 744 q 256 465 256 619 q 318 249 256 311 z "},"Ó":{"ha":1075,"x_min":35,"x_max":1040,"o":"m 649 1014 l 425 1014 l 606 1196 l 904 1196 l 649 1014 m 535 -14 q 169 117 304 -14 q 35 465 35 247 q 169 814 35 683 q 535 944 304 944 q 905 815 769 944 q 1040 465 1040 685 q 905 116 1040 246 q 535 -14 769 -14 m 318 249 q 349 217 318 249 q 535 186 381 186 q 753 249 689 186 q 818 465 818 311 q 753 682 818 619 q 535 744 689 744 q 318 682 381 744 q 256 465 256 619 q 318 249 256 311 z "},"Ô":{"ha":1075,"x_min":35,"x_max":1040,"o":"m 451 1014 l 229 1014 l 413 1194 l 661 1194 l 846 1014 l 621 1014 l 544 1094 l 531 1094 l 451 1014 m 535 -14 q 169 117 304 -14 q 35 465 35 247 q 169 814 35 683 q 535 944 304 944 q 905 815 769 944 q 1040 465 1040 685 q 905 116 1040 246 q 535 -14 769 -14 m 318 249 q 349 217 318 249 q 535 186 381 186 q 753 249 689 186 q 818 465 818 311 q 753 682 818 619 q 535 744 689 744 q 318 682 381 744 q 256 465 256 619 q 318 249 256 311 z "},"Õ":{"ha":1075,"x_min":35,"x_max":1040,"o":"m 418 1006 l 279 1006 l 279 1068 q 407 1210 279 1210 q 522 1179 453 1210 l 564 1161 q 624 1142 606 1142 q 657 1182 657 1142 l 657 1200 l 796 1200 l 796 1139 q 766 1035 796 1074 q 676 996 736 996 q 557 1026 625 996 l 503 1047 q 447 1065 467 1065 q 418 1032 418 1065 l 418 1006 m 535 -14 q 169 117 304 -14 q 35 465 35 247 q 169 814 35 683 q 535 944 304 944 q 905 815 769 944 q 1040 465 1040 685 q 905 116 1040 246 q 535 -14 769 -14 m 318 249 q 349 217 318 249 q 535 186 381 186 q 753 249 689 186 q 818 465 818 311 q 753 682 818 619 q 535 744 689 744 q 318 682 381 744 q 256 465 256 619 q 318 249 256 311 z "},"Ö":{"ha":1075,"x_min":35,"x_max":1040,"o":"m 783 1014 l 586 1014 l 586 1197 l 783 1197 l 783 1014 m 489 1014 l 290 1014 l 290 1197 l 489 1197 l 489 1014 m 535 -14 q 169 117 304 -14 q 35 465 35 247 q 169 814 35 683 q 535 944 304 944 q 905 815 769 944 q 1040 465 1040 685 q 905 116 1040 246 q 535 -14 769 -14 m 318 249 q 349 217 318 249 q 535 186 381 186 q 753 249 689 186 q 818 465 818 311 q 753 682 818 619 q 535 744 689 744 q 318 682 381 744 q 256 465 256 619 q 318 249 256 311 z "},"×":{"ha":694,"x_min":56,"x_max":639,"o":"m 639 300 l 513 174 l 344 342 l 178 175 l 57 296 l 224 463 l 56 631 l 181 757 l 350 589 l 517 756 l 638 635 l 471 468 l 639 300 z "},"Ø":{"ha":1075,"x_min":17,"x_max":1054,"o":"m 535 -14 q 222 74 349 -14 l 117 -25 l 17 81 l 118 175 q 35 465 35 294 q 169 814 35 683 q 535 944 304 944 q 851 858 722 944 l 954 954 l 1054 849 l 956 757 q 1040 465 1040 639 q 905 116 1040 246 q 535 -14 769 -14 m 256 465 q 275 321 256 375 l 700 718 q 535 744 639 744 q 318 682 381 744 q 256 465 256 619 m 535 186 q 753 249 689 186 q 818 465 818 311 q 799 610 818 551 l 372 213 q 535 186 431 186 z "},"Ù":{"ha":1013,"x_min":49,"x_max":963,"o":"m 618 1014 l 394 1014 l 139 1196 l 438 1196 l 618 1014 m 506 -14 q 165 92 282 -14 q 49 389 49 199 l 49 931 l 257 931 l 257 404 q 311 237 257 285 q 506 189 365 189 q 701 237 647 189 q 754 404 754 285 l 754 931 l 963 931 l 963 389 q 847 92 963 199 q 506 -14 731 -14 z "},"Ú":{"ha":1013,"x_min":49,"x_max":963,"o":"m 617 1014 l 394 1014 l 575 1196 l 874 1196 l 617 1014 m 506 -14 q 165 92 282 -14 q 49 389 49 199 l 49 931 l 257 931 l 257 404 q 311 237 257 285 q 506 189 365 189 q 701 237 647 189 q 754 404 754 285 l 754 931 l 963 931 l 963 389 q 847 92 963 199 q 506 -14 731 -14 z "},"Û":{"ha":1013,"x_min":49,"x_max":963,"o":"m 421 1014 l 199 1014 l 382 1194 l 629 1194 l 814 1014 l 590 1014 l 513 1094 l 499 1094 l 421 1014 m 506 -14 q 165 92 282 -14 q 49 389 49 199 l 49 931 l 257 931 l 257 404 q 311 237 257 285 q 506 189 365 189 q 701 237 647 189 q 754 404 754 285 l 754 931 l 963 931 l 963 389 q 847 92 963 199 q 506 -14 731 -14 z "},"Ü":{"ha":1013,"x_min":49,"x_max":963,"o":"m 753 1014 l 556 1014 l 556 1197 l 753 1197 l 753 1014 m 457 1014 l 260 1014 l 260 1197 l 457 1197 l 457 1014 m 506 -14 q 165 92 282 -14 q 49 389 49 199 l 49 931 l 257 931 l 257 404 q 311 237 257 285 q 506 189 365 189 q 701 237 647 189 q 754 404 754 285 l 754 931 l 963 931 l 963 389 q 847 92 963 199 q 506 -14 731 -14 z "},"Ý":{"ha":1011,"x_min":-15,"x_max":1026,"o":"m 617 1014 l 393 1014 l 575 1196 l 872 1196 l 617 1014 m 607 0 l 397 0 l 397 308 l -15 931 l 242 931 l 419 658 l 497 533 l 513 533 l 590 658 l 768 931 l 1026 931 l 607 307 l 607 0 z "},"Þ":{"ha":924,"x_min":56,"x_max":907,"o":"m 264 0 l 56 0 l 56 931 l 264 931 l 264 806 l 553 806 q 811 716 715 806 q 907 467 907 626 q 811 215 907 306 q 553 125 715 125 l 264 125 l 264 0 m 531 618 l 264 618 l 264 314 l 531 314 q 660 347 621 314 q 699 467 699 381 q 659 585 699 551 q 531 618 619 618 z "},"ß":{"ha":949,"x_min":69,"x_max":931,"o":"m 275 0 l 69 0 l 69 593 q 178 851 69 761 q 508 942 286 942 q 794 874 696 942 q 893 699 893 807 q 661 494 893 510 l 661 482 q 862 413 793 475 q 931 247 931 350 q 853 65 931 131 q 615 0 775 0 l 361 0 l 361 188 l 590 188 q 692 210 663 188 q 721 289 721 233 q 689 366 721 343 q 586 389 657 389 l 361 389 l 361 561 l 561 561 q 654 581 625 561 q 683 647 683 601 q 645 721 683 699 q 494 743 607 743 q 317 712 360 743 q 275 594 275 681 l 275 0 z "},"à":{"ha":808,"x_min":29,"x_max":758,"o":"m 517 778 l 294 778 l 38 958 l 336 958 l 517 778 m 269 -14 q 93 35 157 -14 q 29 172 29 85 q 254 354 29 331 l 553 385 l 553 411 q 519 502 553 478 q 401 526 486 526 q 287 502 321 526 q 253 419 253 478 l 253 414 l 43 414 l 43 418 q 144 629 43 549 q 417 710 246 710 q 672 629 586 710 q 758 408 758 549 l 758 0 l 564 0 l 564 160 l 553 160 q 456 32 528 78 q 269 -14 383 -14 m 239 186 q 329 133 239 133 q 494 163 439 133 q 553 265 549 193 l 311 238 q 239 186 239 232 z "},"á":{"ha":808,"x_min":29,"x_max":775,"o":"m 518 778 l 294 778 l 476 958 l 775 958 l 518 778 m 269 -14 q 93 35 157 -14 q 29 172 29 85 q 254 354 29 331 l 553 385 l 553 411 q 519 502 553 478 q 401 526 486 526 q 287 502 321 526 q 253 419 253 478 l 253 414 l 43 414 l 43 418 q 144 629 43 549 q 417 710 246 710 q 672 629 586 710 q 758 408 758 549 l 758 0 l 564 0 l 564 160 l 553 160 q 456 32 528 78 q 269 -14 383 -14 m 239 186 q 329 133 239 133 q 494 163 439 133 q 553 265 549 193 l 311 238 q 239 186 239 232 z "},"â":{"ha":808,"x_min":29,"x_max":758,"o":"m 321 778 l 99 778 l 282 958 l 531 958 l 715 778 l 490 778 l 414 858 l 400 858 l 321 778 m 269 -14 q 93 35 157 -14 q 29 172 29 85 q 254 354 29 331 l 553 385 l 553 411 q 519 502 553 478 q 401 526 486 526 q 287 502 321 526 q 253 419 253 478 l 253 414 l 43 414 l 43 418 q 144 629 43 549 q 417 710 246 710 q 672 629 586 710 q 758 408 758 549 l 758 0 l 564 0 l 564 160 l 553 160 q 456 32 528 78 q 269 -14 383 -14 m 239 186 q 329 133 239 133 q 494 163 439 133 q 553 265 549 193 l 311 238 q 239 186 239 232 z "},"ã":{"ha":808,"x_min":29,"x_max":758,"o":"m 288 769 l 147 769 l 147 832 q 276 974 147 974 q 392 943 322 974 l 433 925 q 492 906 475 906 q 526 946 526 906 l 526 964 l 665 964 l 665 903 q 635 799 665 838 q 544 760 606 760 q 426 790 494 760 l 372 811 q 317 829 333 829 q 288 797 288 829 l 288 769 m 269 -14 q 93 35 157 -14 q 29 172 29 85 q 254 354 29 331 l 553 385 l 553 411 q 519 502 553 478 q 401 526 486 526 q 287 502 321 526 q 253 419 253 478 l 253 414 l 43 414 l 43 418 q 144 629 43 549 q 417 710 246 710 q 672 629 586 710 q 758 408 758 549 l 758 0 l 564 0 l 564 160 l 553 160 q 456 32 528 78 q 269 -14 383 -14 m 239 186 q 329 133 239 133 q 494 163 439 133 q 553 265 549 193 l 311 238 q 239 186 239 232 z "},"ä":{"ha":808,"x_min":29,"x_max":758,"o":"m 653 778 l 456 778 l 456 961 l 653 961 l 653 778 m 357 778 l 160 778 l 160 961 l 357 961 l 357 778 m 269 -14 q 93 35 157 -14 q 29 172 29 85 q 254 354 29 331 l 553 385 l 553 411 q 519 502 553 478 q 401 526 486 526 q 287 502 321 526 q 253 419 253 478 l 253 414 l 43 414 l 43 418 q 144 629 43 549 q 417 710 246 710 q 672 629 586 710 q 758 408 758 549 l 758 0 l 564 0 l 564 160 l 553 160 q 456 32 528 78 q 269 -14 383 -14 m 239 186 q 329 133 239 133 q 494 163 439 133 q 553 265 549 193 l 311 238 q 239 186 239 232 z "},"å":{"ha":808,"x_min":29,"x_max":758,"o":"m 512 789 q 492 772 512 789 q 407 756 472 756 q 302 789 342 756 q 263 878 263 822 q 302 967 263 933 q 407 1000 342 1000 q 512 967 472 1000 q 551 878 551 933 q 512 789 551 822 m 407 838 q 461 878 461 838 q 407 918 461 918 q 351 878 351 918 q 407 838 351 838 m 269 -14 q 93 35 157 -14 q 29 172 29 85 q 254 354 29 331 l 553 385 l 553 411 q 519 502 553 478 q 401 526 486 526 q 287 502 321 526 q 253 419 253 478 l 253 414 l 43 414 l 43 418 q 144 629 43 549 q 417 710 246 710 q 672 629 586 710 q 758 408 758 549 l 758 0 l 564 0 l 564 160 l 553 160 q 456 32 528 78 q 269 -14 383 -14 m 239 186 q 329 133 239 133 q 494 163 439 133 q 553 265 549 193 l 311 238 q 239 186 239 232 z "},"æ":{"ha":1351,"x_min":28,"x_max":1332,"o":"m 278 -14 q 94 35 160 -14 q 28 172 28 85 q 85 299 28 251 q 253 357 142 347 l 567 389 l 567 411 q 533 502 567 478 q 413 526 500 526 q 288 502 325 526 q 250 419 250 478 l 250 408 l 42 408 l 42 418 q 143 629 42 549 q 415 710 244 710 q 683 619 596 710 q 953 710 786 710 q 1229 622 1126 710 q 1332 372 1332 533 q 1326 306 1332 338 l 760 306 q 807 188 764 224 q 950 153 850 153 q 1078 176 1040 153 q 1117 244 1117 199 l 1117 258 l 1325 258 l 1325 243 q 1224 58 1325 129 q 957 -14 1122 -14 q 604 165 694 -14 l 594 165 q 483 33 565 79 q 278 -14 400 -14 m 1084 516 q 1062 532 1084 516 q 949 547 1040 547 q 813 515 857 547 q 763 415 769 483 l 1133 415 q 1084 516 1128 485 m 238 186 q 332 133 238 133 q 506 163 447 133 q 574 264 564 192 l 574 267 l 308 238 q 238 186 238 231 z "},"ç":{"ha":838,"x_min":35,"x_max":803,"o":"m 503 -318 l 365 -318 l 365 -207 l 506 -207 q 529 -189 529 -207 q 506 -169 529 -169 l 369 -169 l 369 -11 q 125 101 215 4 q 35 347 35 197 q 141 612 35 514 q 426 710 247 710 q 699 627 594 710 q 803 410 803 544 l 803 390 l 596 390 l 596 401 q 422 522 596 522 q 285 482 328 522 q 242 347 242 442 q 285 213 242 253 q 422 174 328 174 q 596 294 596 174 l 596 306 l 803 306 l 803 286 q 715 82 803 163 q 479 -11 626 1 l 479 -60 l 503 -60 q 612 -94 574 -60 q 650 -187 650 -128 q 612 -283 650 -249 q 503 -318 574 -318 z "},"è":{"ha":833,"x_min":35,"x_max":800,"o":"m 528 778 l 304 778 l 47 958 l 346 958 l 528 778 m 425 -14 q 140 77 244 -14 q 35 347 35 168 q 141 611 35 513 q 421 710 247 710 q 697 622 594 710 q 800 372 800 533 q 794 306 800 353 l 228 306 q 275 188 232 224 q 418 153 318 153 q 547 176 508 153 q 585 244 585 199 l 585 258 l 793 258 l 793 243 q 692 58 793 129 q 425 -14 590 -14 m 552 516 q 530 532 552 516 q 417 547 508 547 q 281 515 325 547 q 231 415 238 483 l 600 415 q 552 516 596 485 z "},"é":{"ha":833,"x_min":35,"x_max":800,"o":"m 529 778 l 304 778 l 486 958 l 786 958 l 529 778 m 425 -14 q 140 77 244 -14 q 35 347 35 168 q 141 611 35 513 q 421 710 247 710 q 697 622 594 710 q 800 372 800 533 q 794 306 800 353 l 228 306 q 275 188 232 224 q 418 153 318 153 q 547 176 508 153 q 585 244 585 199 l 585 258 l 793 258 l 793 243 q 692 58 793 129 q 425 -14 590 -14 m 552 516 q 530 532 552 516 q 417 547 508 547 q 281 515 325 547 q 231 415 238 483 l 600 415 q 552 516 596 485 z "},"ê":{"ha":833,"x_min":35,"x_max":800,"o":"m 332 778 l 108 778 l 292 958 l 540 958 l 725 778 l 501 778 l 424 858 l 410 858 l 332 778 m 425 -14 q 140 77 244 -14 q 35 347 35 168 q 141 611 35 513 q 421 710 247 710 q 697 622 594 710 q 800 372 800 533 q 794 306 800 353 l 228 306 q 275 188 232 224 q 418 153 318 153 q 547 176 508 153 q 585 244 585 199 l 585 258 l 793 258 l 793 243 q 692 58 793 129 q 425 -14 590 -14 m 552 516 q 530 532 552 516 q 417 547 508 547 q 281 515 325 547 q 231 415 238 483 l 600 415 q 552 516 596 485 z "},"ë":{"ha":833,"x_min":35,"x_max":800,"o":"m 664 778 l 465 778 l 465 961 l 664 961 l 664 778 m 368 778 l 171 778 l 171 961 l 368 961 l 368 778 m 425 -14 q 140 77 244 -14 q 35 347 35 168 q 141 611 35 513 q 421 710 247 710 q 697 622 594 710 q 800 372 800 533 q 794 306 800 353 l 228 306 q 275 188 232 224 q 418 153 318 153 q 547 176 508 153 q 585 244 585 199 l 585 258 l 793 258 l 793 243 q 692 58 793 129 q 425 -14 590 -14 m 552 516 q 530 532 552 516 q 417 547 508 547 q 281 515 325 547 q 231 415 238 483 l 600 415 q 552 516 596 485 z "},"ì":{"ha":344,"x_min":-197,"x_max":283,"o":"m 283 778 l 60 778 l -197 958 l 103 958 l 283 778 m 276 0 l 68 0 l 68 694 l 276 694 l 276 0 z "},"í":{"ha":344,"x_min":61,"x_max":542,"o":"m 285 778 l 61 778 l 243 958 l 542 958 l 285 778 m 276 0 l 68 0 l 68 694 l 276 694 l 276 0 z "},"î":{"ha":344,"x_min":-135,"x_max":481,"o":"m 88 778 l -135 778 l 49 958 l 296 958 l 481 778 l 257 778 l 179 858 l 165 858 l 88 778 m 276 0 l 68 0 l 68 694 l 276 694 l 276 0 z "},"ï":{"ha":344,"x_min":-74,"x_max":419,"o":"m 419 778 l 222 778 l 222 961 l 419 961 l 419 778 m 124 778 l -74 778 l -74 961 l 124 961 l 124 778 m 276 0 l 68 0 l 68 694 l 276 694 l 276 0 z "},"ð":{"ha":931,"x_min":18,"x_max":897,"o":"m 432 -14 q 124 73 229 -14 q 18 313 18 160 q 110 533 18 457 q 365 608 203 608 q 658 440 601 608 l 674 440 q 522 719 667 571 l 274 671 l 253 767 l 433 801 q 260 931 360 864 l 542 931 q 664 847 599 901 l 864 886 l 885 790 l 749 764 q 897 379 897 590 q 781 89 897 192 q 432 -14 664 -14 m 444 189 q 617 217 568 189 q 667 311 667 244 q 618 407 667 379 q 444 435 569 435 q 278 407 325 435 q 232 311 232 379 q 278 217 232 244 q 444 189 325 189 z "},"ñ":{"ha":875,"x_min":56,"x_max":825,"o":"m 321 769 l 181 769 l 181 832 q 310 974 181 974 q 425 943 356 974 l 467 925 q 525 906 508 906 q 560 946 560 906 l 560 964 l 699 964 l 699 903 q 669 799 699 838 q 578 760 639 760 q 460 790 528 760 l 406 811 q 350 829 367 829 q 321 797 321 829 l 321 769 m 264 0 l 56 0 l 56 696 l 249 696 l 249 482 l 261 482 q 347 644 276 579 q 544 710 417 710 q 753 633 682 710 q 825 433 825 556 l 825 0 l 617 0 l 617 364 q 577 485 617 449 q 443 522 538 522 q 305 482 346 522 q 264 351 264 442 l 264 0 z "},"ò":{"ha":853,"x_min":29,"x_max":824,"o":"m 536 778 l 314 778 l 57 958 l 356 958 l 536 778 m 715 85 q 660 35 715 85 q 426 -14 606 -14 q 138 85 247 -14 q 29 347 29 183 q 138 611 29 513 q 426 710 247 710 q 715 611 606 710 q 824 347 824 513 q 715 85 824 183 m 279 213 q 301 192 279 213 q 426 171 322 171 q 574 213 531 171 q 617 347 617 254 q 573 483 617 440 q 426 526 529 526 q 279 484 322 526 q 236 347 236 442 q 279 213 236 254 z "},"ó":{"ha":853,"x_min":29,"x_max":824,"o":"m 538 778 l 314 778 l 496 958 l 794 958 l 538 778 m 715 85 q 660 35 715 85 q 426 -14 606 -14 q 138 85 247 -14 q 29 347 29 183 q 138 611 29 513 q 426 710 247 710 q 715 611 606 710 q 824 347 824 513 q 715 85 824 183 m 279 213 q 301 192 279 213 q 426 171 322 171 q 574 213 531 171 q 617 347 617 254 q 573 483 617 440 q 426 526 529 526 q 279 484 322 526 q 236 347 236 442 q 279 213 236 254 z "},"ô":{"ha":853,"x_min":29,"x_max":824,"o":"m 340 778 l 118 778 l 301 958 l 550 958 l 735 778 l 510 778 l 433 858 l 419 858 l 340 778 m 715 85 q 660 35 715 85 q 426 -14 606 -14 q 138 85 247 -14 q 29 347 29 183 q 138 611 29 513 q 426 710 247 710 q 715 611 606 710 q 824 347 824 513 q 715 85 824 183 m 279 213 q 301 192 279 213 q 426 171 322 171 q 574 213 531 171 q 617 347 617 254 q 573 483 617 440 q 426 526 529 526 q 279 484 322 526 q 236 347 236 442 q 279 213 236 254 z "},"õ":{"ha":853,"x_min":29,"x_max":824,"o":"m 307 769 l 168 769 l 168 832 q 296 974 168 974 q 411 943 342 974 l 453 925 q 513 906 494 906 q 546 946 546 906 l 546 964 l 685 964 l 685 903 q 655 799 685 838 q 565 760 625 760 q 446 790 514 760 l 392 811 q 336 829 353 829 q 307 797 307 829 l 307 769 m 715 85 q 660 35 715 85 q 426 -14 606 -14 q 138 85 247 -14 q 29 347 29 183 q 138 611 29 513 q 426 710 247 710 q 715 611 606 710 q 824 347 824 513 q 715 85 824 183 m 279 213 q 301 192 279 213 q 426 171 322 171 q 574 213 531 171 q 617 347 617 254 q 573 483 617 440 q 426 526 529 526 q 279 484 322 526 q 236 347 236 442 q 279 213 236 254 z "},"ö":{"ha":853,"x_min":29,"x_max":824,"o":"m 674 778 l 475 778 l 475 961 l 674 961 l 674 778 m 378 778 l 179 778 l 179 961 l 378 961 l 378 778 m 715 85 q 660 35 715 85 q 426 -14 606 -14 q 138 85 247 -14 q 29 347 29 183 q 138 611 29 513 q 426 710 247 710 q 715 611 606 710 q 824 347 824 513 q 715 85 824 183 m 279 213 q 301 192 279 213 q 426 171 322 171 q 574 213 531 171 q 617 347 617 254 q 573 483 617 440 q 426 526 529 526 q 279 484 322 526 q 236 347 236 442 q 279 213 236 254 z "},"÷":{"ha":717,"x_min":53,"x_max":672,"o":"m 474 646 l 253 646 l 253 863 l 474 863 l 474 646 m 672 379 l 53 379 l 53 551 l 672 551 l 672 379 m 474 68 l 253 68 l 253 285 l 474 285 l 474 68 z "},"ø":{"ha":853,"x_min":22,"x_max":824,"o":"m 426 -14 q 183 51 283 -14 l 97 -28 l 22 56 l 100 126 q 29 347 29 217 q 138 611 29 513 q 426 710 247 710 q 667 647 565 710 l 747 722 l 824 639 l 751 572 q 824 347 824 478 q 715 85 824 183 q 426 -14 606 -14 m 236 347 q 247 263 236 300 l 521 514 q 426 526 483 526 q 279 484 322 526 q 236 347 236 442 m 426 171 q 574 213 531 171 q 617 347 617 254 q 603 436 617 403 l 328 183 q 426 171 367 171 z "},"ù":{"ha":886,"x_min":54,"x_max":835,"o":"m 554 778 l 331 778 l 75 958 l 374 958 l 554 778 m 343 -14 q 128 63 201 -14 q 54 263 54 140 l 54 696 l 263 696 l 263 332 q 303 210 263 247 q 442 172 344 172 q 584 213 542 172 q 626 343 626 253 l 626 696 l 835 696 l 835 0 l 640 0 l 640 213 l 629 213 q 542 51 614 115 q 343 -14 471 -14 z "},"ú":{"ha":886,"x_min":54,"x_max":835,"o":"m 556 778 l 332 778 l 514 958 l 813 958 l 556 778 m 343 -14 q 128 63 201 -14 q 54 263 54 140 l 54 696 l 263 696 l 263 332 q 303 210 263 247 q 442 172 344 172 q 584 213 542 172 q 626 343 626 253 l 626 696 l 835 696 l 835 0 l 640 0 l 640 213 l 629 213 q 542 51 614 115 q 343 -14 471 -14 z "},"û":{"ha":886,"x_min":54,"x_max":835,"o":"m 358 778 l 136 778 l 319 958 l 568 958 l 751 778 l 528 778 l 451 858 l 438 858 l 358 778 m 343 -14 q 128 63 201 -14 q 54 263 54 140 l 54 696 l 263 696 l 263 332 q 303 210 263 247 q 442 172 344 172 q 584 213 542 172 q 626 343 626 253 l 626 696 l 835 696 l 835 0 l 640 0 l 640 213 l 629 213 q 542 51 614 115 q 343 -14 471 -14 z "},"ü":{"ha":886,"x_min":54,"x_max":835,"o":"m 690 778 l 493 778 l 493 961 l 690 961 l 690 778 m 394 778 l 197 778 l 197 961 l 394 961 l 394 778 m 343 -14 q 128 63 201 -14 q 54 263 54 140 l 54 696 l 263 696 l 263 332 q 303 210 263 247 q 442 172 344 172 q 584 213 542 172 q 626 343 626 253 l 626 696 l 835 696 l 835 0 l 640 0 l 640 213 l 629 213 q 542 51 614 115 q 343 -14 471 -14 z "},"ý":{"ha":863,"x_min":-7,"x_max":868,"o":"m 542 778 l 318 778 l 500 958 l 799 958 l 542 778 m 189 -236 l 75 -236 l 75 -47 l 246 -47 q 333 -3 313 -47 l -7 696 l 229 696 l 376 378 l 435 214 l 449 214 l 504 379 l 636 696 l 868 696 l 524 -50 q 400 -197 475 -157 q 189 -236 325 -236 z "},"þ":{"ha":901,"x_min":51,"x_max":869,"o":"m 260 -236 l 51 -236 l 51 931 l 260 931 l 260 508 l 269 508 q 358 656 289 603 q 546 710 428 710 q 785 613 700 710 q 869 347 869 515 q 785 83 869 179 q 546 -14 700 -14 q 358 40 428 -14 q 269 188 289 93 l 260 188 l 260 -236 m 260 338 q 311 214 260 251 q 465 176 363 176 q 613 215 567 176 q 660 347 660 254 q 613 481 660 442 q 465 519 567 519 q 311 481 363 519 q 260 357 260 443 l 260 338 z "},"ÿ":{"ha":863,"x_min":-7,"x_max":868,"o":"m 678 778 l 479 778 l 479 961 l 678 961 l 678 778 m 382 778 l 183 778 l 183 961 l 382 961 l 382 778 m 189 -236 l 75 -236 l 75 -47 l 246 -47 q 333 -3 313 -47 l -7 696 l 229 696 l 376 378 l 435 214 l 449 214 l 504 379 l 636 696 l 868 696 l 524 -50 q 400 -197 475 -157 q 189 -236 325 -236 z "},"Ā":{"ha":1100,"x_min":-7,"x_max":1107,"o":"m 776 1033 l 322 1033 l 322 1182 l 776 1182 l 776 1033 m 226 0 l -7 0 l 400 931 l 697 931 l 1107 0 l 868 0 l 781 206 l 315 206 l 226 0 m 483 596 l 396 393 l 700 393 l 613 596 l 556 740 l 540 740 l 483 596 z "},"ā":{"ha":808,"x_min":29,"x_max":758,"o":"m 633 793 l 179 793 l 179 943 l 633 943 l 633 793 m 269 -14 q 93 35 157 -14 q 29 172 29 85 q 254 354 29 331 l 553 385 l 553 411 q 519 502 553 478 q 401 526 486 526 q 287 502 321 526 q 253 419 253 478 l 253 414 l 43 414 l 43 418 q 144 629 43 549 q 417 710 246 710 q 672 629 586 710 q 758 408 758 549 l 758 0 l 564 0 l 564 160 l 553 160 q 456 32 528 78 q 269 -14 383 -14 m 239 186 q 329 133 239 133 q 494 163 439 133 q 553 265 549 193 l 311 238 q 239 186 239 232 z "},"Ă":{"ha":1100,"x_min":-7,"x_max":1107,"o":"m 712 1051 q 681 1025 712 1051 q 550 1000 650 1000 q 388 1051 450 1000 q 326 1182 326 1101 l 326 1199 l 474 1199 l 474 1185 q 490 1140 474 1154 q 550 1126 506 1126 q 610 1140 594 1126 q 626 1185 626 1154 l 626 1199 l 774 1199 l 774 1182 q 712 1051 774 1101 m 226 0 l -7 0 l 400 931 l 697 931 l 1107 0 l 868 0 l 781 206 l 315 206 l 226 0 m 483 596 l 396 393 l 700 393 l 613 596 l 556 740 l 540 740 l 483 596 z "},"ă":{"ha":808,"x_min":29,"x_max":758,"o":"m 569 815 q 538 789 569 815 q 407 764 507 764 q 245 815 307 764 q 183 946 183 865 l 183 960 l 331 960 l 331 949 q 346 901 331 914 q 407 888 361 888 q 468 901 453 888 q 483 949 483 914 l 483 960 l 631 960 l 631 946 q 569 815 631 865 m 269 -14 q 93 35 157 -14 q 29 172 29 85 q 254 354 29 331 l 553 385 l 553 411 q 519 502 553 478 q 401 526 486 526 q 287 502 321 526 q 253 419 253 478 l 253 414 l 43 414 l 43 418 q 144 629 43 549 q 417 710 246 710 q 672 629 586 710 q 758 408 758 549 l 758 0 l 564 0 l 564 160 l 553 160 q 456 32 528 78 q 269 -14 383 -14 m 239 186 q 329 133 239 133 q 494 163 439 133 q 553 265 549 193 l 311 238 q 239 186 239 232 z "},"Ą":{"ha":1100,"x_min":-7,"x_max":1133,"o":"m 226 0 l -7 0 l 400 931 l 697 931 l 1107 0 l 1046 -76 q 1026 -114 1026 -100 q 1054 -135 1026 -135 l 1133 -135 l 1133 -260 l 1007 -260 q 868 -162 868 -260 q 880 -115 868 -139 q 901 -78 892 -90 q 935 -39 911 -67 l 971 0 l 868 0 l 781 206 l 315 206 l 226 0 m 483 596 l 396 393 l 700 393 l 613 596 l 556 740 l 540 740 l 483 596 z "},"ą":{"ha":808,"x_min":29,"x_max":785,"o":"m 269 -14 q 93 35 157 -14 q 29 172 29 85 q 254 354 29 331 l 553 385 l 553 411 q 519 502 553 478 q 401 526 486 526 q 287 502 321 526 q 253 419 253 478 l 253 414 l 43 414 l 43 418 q 144 629 43 549 q 417 710 246 710 q 672 629 586 710 q 758 408 758 549 l 758 0 l 697 -76 q 678 -114 678 -100 q 706 -135 678 -135 l 785 -135 l 785 -260 l 658 -260 q 519 -162 519 -260 q 531 -115 519 -139 q 553 -78 543 -90 q 586 -39 563 -67 l 622 0 l 564 0 l 564 160 l 553 160 q 456 32 528 78 q 269 -14 383 -14 m 239 186 q 329 133 239 133 q 494 163 439 133 q 553 265 549 193 l 311 238 q 239 186 239 232 z "},"Ć":{"ha":1042,"x_min":35,"x_max":1007,"o":"m 632 1014 l 408 1014 l 590 1196 l 888 1196 l 632 1014 m 532 -14 q 169 117 303 -14 q 35 465 35 247 q 169 814 35 683 q 532 944 303 944 q 878 842 750 944 q 1007 564 1007 740 l 1007 543 l 775 543 l 775 564 q 718 701 775 657 q 536 744 661 744 q 319 682 382 744 q 256 465 256 619 q 319 249 256 311 q 536 186 382 186 q 718 230 661 186 q 775 367 775 274 l 775 388 l 1007 388 l 1007 367 q 878 88 1007 190 q 532 -14 750 -14 z "},"ć":{"ha":838,"x_min":35,"x_max":803,"o":"m 539 778 l 314 778 l 496 958 l 794 958 l 539 778 m 426 -14 q 141 84 247 -14 q 35 347 35 182 q 141 612 35 514 q 426 710 247 710 q 699 627 594 710 q 803 410 803 544 l 803 390 l 596 390 l 596 401 q 422 522 596 522 q 285 482 328 522 q 242 347 242 442 q 285 213 242 253 q 422 174 328 174 q 596 294 596 174 l 596 306 l 803 306 l 803 286 q 699 69 803 151 q 426 -14 594 -14 z "},"Ĉ":{"ha":1042,"x_min":35,"x_max":1007,"o":"m 436 1014 l 213 1014 l 396 1194 l 644 1194 l 829 1014 l 606 1014 l 528 1094 l 514 1094 l 436 1014 m 532 -14 q 169 117 303 -14 q 35 465 35 247 q 169 814 35 683 q 532 944 303 944 q 878 842 750 944 q 1007 564 1007 740 l 1007 543 l 775 543 l 775 564 q 718 701 775 657 q 536 744 661 744 q 319 682 382 744 q 256 465 256 619 q 319 249 256 311 q 536 186 382 186 q 718 230 661 186 q 775 367 775 274 l 775 388 l 1007 388 l 1007 367 q 878 88 1007 190 q 532 -14 750 -14 z "},"ĉ":{"ha":838,"x_min":35,"x_max":803,"o":"m 342 778 l 118 778 l 301 958 l 550 958 l 735 778 l 511 778 l 433 858 l 419 858 l 342 778 m 426 -14 q 141 84 247 -14 q 35 347 35 182 q 141 612 35 514 q 426 710 247 710 q 699 627 594 710 q 803 410 803 544 l 803 390 l 596 390 l 596 401 q 422 522 596 522 q 285 482 328 522 q 242 347 242 442 q 285 213 242 253 q 422 174 328 174 q 596 294 596 174 l 596 306 l 803 306 l 803 286 q 699 69 803 151 q 426 -14 594 -14 z "},"Ċ":{"ha":1042,"x_min":35,"x_max":1007,"o":"m 625 1014 l 417 1014 l 417 1197 l 625 1197 l 625 1014 m 532 -14 q 169 117 303 -14 q 35 465 35 247 q 169 814 35 683 q 532 944 303 944 q 878 842 750 944 q 1007 564 1007 740 l 1007 543 l 775 543 l 775 564 q 718 701 775 657 q 536 744 661 744 q 319 682 382 744 q 256 465 256 619 q 319 249 256 311 q 536 186 382 186 q 718 230 661 186 q 775 367 775 274 l 775 388 l 1007 388 l 1007 367 q 878 88 1007 190 q 532 -14 750 -14 z "},"ċ":{"ha":838,"x_min":35,"x_max":803,"o":"m 531 778 l 322 778 l 322 961 l 531 961 l 531 778 m 426 -14 q 141 84 247 -14 q 35 347 35 182 q 141 612 35 514 q 426 710 247 710 q 699 627 594 710 q 803 410 803 544 l 803 390 l 596 390 l 596 401 q 422 522 596 522 q 285 482 328 522 q 242 347 242 442 q 285 213 242 253 q 422 174 328 174 q 596 294 596 174 l 596 306 l 803 306 l 803 286 q 699 69 803 151 q 426 -14 594 -14 z "},"Č":{"ha":1042,"x_min":35,"x_max":1007,"o":"m 606 1194 l 829 1194 l 646 1014 l 397 1014 l 213 1194 l 436 1194 l 514 1114 l 528 1114 l 606 1194 m 532 -14 q 169 117 303 -14 q 35 465 35 247 q 169 814 35 683 q 532 944 303 944 q 878 842 750 944 q 1007 564 1007 740 l 1007 543 l 775 543 l 775 564 q 718 701 775 657 q 536 744 661 744 q 319 682 382 744 q 256 465 256 619 q 319 249 256 311 q 536 186 382 186 q 718 230 661 186 q 775 367 775 274 l 775 388 l 1007 388 l 1007 367 q 878 88 1007 190 q 532 -14 750 -14 z "},"č":{"ha":838,"x_min":35,"x_max":803,"o":"m 550 778 l 301 778 l 118 958 l 350 958 l 419 878 l 433 878 l 503 958 l 735 958 l 550 778 m 426 -14 q 141 84 247 -14 q 35 347 35 182 q 141 612 35 514 q 426 710 247 710 q 699 627 594 710 q 803 410 803 544 l 803 390 l 596 390 l 596 401 q 422 522 596 522 q 285 482 328 522 q 242 347 242 442 q 285 213 242 253 q 422 174 328 174 q 596 294 596 174 l 596 306 l 803 306 l 803 286 q 699 69 803 151 q 426 -14 594 -14 z "},"Ď":{"ha":1038,"x_min":67,"x_max":1003,"o":"m 619 1194 l 843 1194 l 660 1014 l 411 1014 l 226 1194 l 450 1194 l 528 1114 l 542 1114 l 619 1194 m 515 0 l 67 0 l 67 931 l 515 931 q 872 807 740 931 q 1003 465 1003 683 q 872 124 1003 247 q 515 0 740 0 m 515 743 l 275 743 l 275 188 l 515 188 q 722 245 663 188 q 781 465 781 303 q 722 685 781 628 q 515 743 663 743 z "},"ď":{"ha":1069,"x_min":31,"x_max":1094,"o":"m 367 -14 q 119 83 207 -14 q 31 347 31 181 q 116 613 31 515 q 356 710 201 710 q 543 656 475 710 q 629 511 611 603 l 642 511 l 642 931 l 850 931 l 850 0 l 656 0 l 656 193 l 644 193 q 367 -14 604 -14 m 957 603 l 901 603 l 901 704 l 951 704 q 977 710 969 704 q 985 736 985 717 l 985 753 l 896 753 l 896 931 l 1094 931 l 1094 739 q 957 603 1094 603 m 242 347 q 288 215 242 254 q 438 176 335 176 q 591 215 540 176 q 642 343 642 254 l 642 354 q 591 481 642 443 q 438 519 540 519 q 288 481 335 519 q 242 347 242 442 z "},"Đ":{"ha":1128,"x_min":14,"x_max":1093,"o":"m 606 0 l 157 0 l 157 372 l 14 372 l 14 558 l 157 558 l 157 931 l 606 931 q 962 807 831 931 q 1093 465 1093 683 q 962 124 1093 247 q 606 0 831 0 m 642 372 l 365 372 l 365 188 l 606 188 q 812 245 753 188 q 871 465 871 303 q 812 685 871 628 q 606 743 753 743 l 365 743 l 365 558 l 642 558 l 642 372 z "},"đ":{"ha":958,"x_min":31,"x_max":960,"o":"m 364 -14 q 118 75 206 -14 q 31 319 31 164 q 115 565 31 475 q 354 654 200 654 q 540 601 469 654 q 629 457 611 547 l 642 457 l 642 686 l 439 686 l 439 843 l 642 843 l 642 931 l 850 931 l 850 843 l 960 843 l 960 686 l 850 686 l 850 0 l 656 0 l 656 192 l 644 192 q 553 40 624 93 q 364 -14 482 -14 m 288 431 q 265 414 288 431 q 242 319 242 397 q 288 209 242 242 q 436 176 335 176 q 642 315 642 176 l 642 326 q 435 464 642 464 q 288 431 335 464 z "},"Ē":{"ha":882,"x_min":56,"x_max":843,"o":"m 675 1033 l 221 1033 l 221 1182 l 675 1182 l 675 1033 m 843 0 l 56 0 l 56 931 l 843 931 l 843 743 l 264 743 l 264 561 l 822 561 l 822 375 l 264 375 l 264 188 l 843 188 l 843 0 z "},"ē":{"ha":833,"x_min":35,"x_max":800,"o":"m 644 793 l 189 793 l 189 943 l 644 943 l 644 793 m 425 -14 q 140 77 244 -14 q 35 347 35 168 q 141 611 35 513 q 421 710 247 710 q 697 622 594 710 q 800 372 800 533 q 794 306 800 353 l 228 306 q 275 188 232 224 q 418 153 318 153 q 547 176 508 153 q 585 244 585 199 l 585 258 l 793 258 l 793 243 q 692 58 793 129 q 425 -14 590 -14 m 552 516 q 530 532 552 516 q 417 547 508 547 q 281 515 325 547 q 231 415 238 483 l 600 415 q 552 516 596 485 z "},"Ĕ":{"ha":882,"x_min":56,"x_max":843,"o":"m 610 1051 q 580 1025 610 1051 q 449 1000 549 1000 q 287 1051 349 1000 q 225 1182 225 1101 l 225 1199 l 372 1199 l 372 1185 q 388 1140 372 1154 q 449 1126 404 1126 q 509 1140 493 1126 q 525 1185 525 1154 l 525 1199 l 672 1199 l 672 1182 q 610 1051 672 1101 m 843 0 l 56 0 l 56 931 l 843 931 l 843 743 l 264 743 l 264 561 l 822 561 l 822 375 l 264 375 l 264 188 l 843 188 l 843 0 z "},"ĕ":{"ha":833,"x_min":35,"x_max":800,"o":"m 578 815 q 548 789 578 815 q 417 764 517 764 q 255 815 317 764 q 193 946 193 865 l 193 960 l 340 960 l 340 949 q 356 901 340 914 q 417 888 372 888 q 478 901 463 888 q 493 949 493 914 l 493 960 l 640 960 l 640 946 q 578 815 640 865 m 425 -14 q 140 77 244 -14 q 35 347 35 168 q 141 611 35 513 q 421 710 247 710 q 697 622 594 710 q 800 372 800 533 q 794 306 800 353 l 228 306 q 275 188 232 224 q 418 153 318 153 q 547 176 508 153 q 585 244 585 199 l 585 258 l 793 258 l 793 243 q 692 58 793 129 q 425 -14 590 -14 m 552 516 q 530 532 552 516 q 417 547 508 547 q 281 515 325 547 q 231 415 238 483 l 600 415 q 552 516 596 485 z "},"Ė":{"ha":882,"x_min":56,"x_max":843,"o":"m 553 1014 l 344 1014 l 344 1197 l 553 1197 l 553 1014 m 843 0 l 56 0 l 56 931 l 843 931 l 843 743 l 264 743 l 264 561 l 822 561 l 822 375 l 264 375 l 264 188 l 843 188 l 843 0 z "},"ė":{"ha":833,"x_min":35,"x_max":800,"o":"m 521 778 l 313 778 l 313 961 l 521 961 l 521 778 m 425 -14 q 140 77 244 -14 q 35 347 35 168 q 141 611 35 513 q 421 710 247 710 q 697 622 594 710 q 800 372 800 533 q 794 306 800 353 l 228 306 q 275 188 232 224 q 418 153 318 153 q 547 176 508 153 q 585 244 585 199 l 585 258 l 793 258 l 793 243 q 692 58 793 129 q 425 -14 590 -14 m 552 516 q 530 532 552 516 q 417 547 508 547 q 281 515 325 547 q 231 415 238 483 l 600 415 q 552 516 596 485 z "},"Ę":{"ha":882,"x_min":56,"x_max":869,"o":"m 822 375 l 264 375 l 264 188 l 843 188 l 843 0 l 782 -76 q 763 -114 763 -100 q 790 -135 763 -135 l 869 -135 l 869 -260 l 743 -260 q 604 -162 604 -260 q 616 -115 604 -139 q 638 -78 628 -90 q 671 -39 647 -67 l 707 0 l 56 0 l 56 931 l 843 931 l 843 743 l 264 743 l 264 561 l 822 561 l 822 375 z "},"ę":{"ha":833,"x_min":35,"x_max":800,"o":"m 569 -260 l 443 -260 q 306 -162 306 -260 q 317 -115 306 -139 q 339 -78 328 -92 q 372 -39 350 -64 l 394 -14 q 131 84 228 -7 q 35 347 35 175 q 141 611 35 513 q 421 710 247 710 q 697 622 594 710 q 800 372 800 533 q 794 306 800 353 l 228 306 q 275 188 232 224 q 418 153 318 153 q 547 176 508 153 q 585 244 585 199 l 585 258 l 793 258 l 793 243 q 725 86 793 151 q 540 -3 657 21 l 482 -76 q 464 -114 464 -101 q 492 -135 464 -135 l 569 -135 l 569 -260 m 552 516 q 530 532 552 516 q 417 547 508 547 q 281 515 325 547 q 231 415 238 483 l 600 415 q 552 516 596 485 z "},"Ě":{"ha":882,"x_min":56,"x_max":843,"o":"m 533 1194 l 756 1194 l 572 1014 l 325 1014 l 140 1194 l 364 1194 l 442 1114 l 456 1114 l 533 1194 m 843 0 l 56 0 l 56 931 l 843 931 l 843 743 l 264 743 l 264 561 l 822 561 l 822 375 l 264 375 l 264 188 l 843 188 l 843 0 z "},"ě":{"ha":833,"x_min":35,"x_max":800,"o":"m 540 778 l 292 778 l 108 958 l 340 958 l 410 878 l 424 878 l 494 958 l 725 958 l 540 778 m 425 -14 q 140 77 244 -14 q 35 347 35 168 q 141 611 35 513 q 421 710 247 710 q 697 622 594 710 q 800 372 800 533 q 794 306 800 353 l 228 306 q 275 188 232 224 q 418 153 318 153 q 547 176 508 153 q 585 244 585 199 l 585 258 l 793 258 l 793 243 q 692 58 793 129 q 425 -14 590 -14 m 552 516 q 530 532 552 516 q 417 547 508 547 q 281 515 325 547 q 231 415 238 483 l 600 415 q 552 516 596 485 z "},"Ĝ":{"ha":1075,"x_min":35,"x_max":1029,"o":"m 465 1014 l 242 1014 l 425 1194 l 674 1194 l 858 1014 l 635 1014 l 557 1094 l 543 1094 l 465 1014 m 494 -14 q 158 116 282 -14 q 35 465 35 246 q 174 815 35 685 q 551 944 313 944 q 899 848 771 944 q 1028 585 1028 751 l 1028 574 l 796 574 l 796 585 q 737 706 796 667 q 546 744 678 744 q 321 682 386 744 q 256 465 256 619 q 319 249 256 311 q 536 186 382 186 q 757 217 697 186 q 821 338 817 249 l 506 338 l 506 492 l 1029 492 l 1029 0 l 836 0 l 836 200 l 825 200 q 494 -14 769 -14 z "},"ĝ":{"ha":896,"x_min":35,"x_max":840,"o":"m 354 778 l 132 778 l 315 958 l 564 958 l 749 778 l 524 778 l 447 858 l 433 858 l 354 778 m 361 71 q 121 156 207 71 q 35 390 35 242 q 124 624 35 538 q 369 710 214 710 q 548 663 478 710 q 635 528 618 617 l 646 528 l 646 696 l 840 696 l 840 101 q 444 -250 840 -250 q 176 -178 274 -250 q 78 25 78 -106 l 286 25 q 320 -56 286 -35 q 458 -76 354 -76 q 597 -44 561 -76 q 632 88 632 -12 l 632 244 l 621 244 q 538 117 603 164 q 361 71 474 71 m 290 498 q 267 482 290 498 q 244 390 244 467 q 289 282 244 314 q 433 250 333 250 q 583 281 535 250 q 632 383 632 313 l 632 399 q 584 499 632 468 q 436 529 536 529 q 290 498 335 529 z "},"Ğ":{"ha":1075,"x_min":35,"x_max":1029,"o":"m 712 1051 q 681 1025 712 1051 q 550 1000 650 1000 q 388 1051 450 1000 q 326 1182 326 1101 l 326 1199 l 474 1199 l 474 1185 q 490 1140 474 1154 q 550 1126 506 1126 q 611 1140 596 1126 q 626 1185 626 1153 l 626 1199 l 774 1199 l 774 1182 q 712 1051 774 1101 m 494 -14 q 158 116 282 -14 q 35 465 35 246 q 174 815 35 685 q 551 944 313 944 q 899 848 771 944 q 1028 585 1028 751 l 1028 574 l 796 574 l 796 585 q 737 706 796 667 q 546 744 678 744 q 321 682 386 744 q 256 465 256 619 q 319 249 256 311 q 536 186 382 186 q 757 217 697 186 q 821 338 817 249 l 506 338 l 506 492 l 1029 492 l 1029 0 l 836 0 l 836 200 l 825 200 q 494 -14 769 -14 z "},"ğ":{"ha":896,"x_min":35,"x_max":840,"o":"m 602 815 q 571 789 602 815 q 440 764 540 764 q 278 815 340 764 q 217 946 217 865 l 217 960 l 364 960 l 364 949 q 380 901 364 914 q 440 888 396 888 q 501 901 486 888 q 517 949 517 914 l 517 960 l 664 960 l 664 946 q 602 815 664 865 m 361 71 q 121 156 207 71 q 35 390 35 242 q 124 624 35 538 q 369 710 214 710 q 548 663 478 710 q 635 528 618 617 l 646 528 l 646 696 l 840 696 l 840 101 q 444 -250 840 -250 q 176 -178 274 -250 q 78 25 78 -106 l 286 25 q 320 -56 286 -35 q 458 -76 354 -76 q 597 -44 561 -76 q 632 88 632 -12 l 632 244 l 621 244 q 538 117 603 164 q 361 71 474 71 m 290 498 q 267 482 290 498 q 244 390 244 467 q 289 282 244 314 q 433 250 333 250 q 583 281 535 250 q 632 383 632 313 l 632 399 q 584 499 632 468 q 436 529 536 529 q 290 498 335 529 z "},"Ġ":{"ha":1075,"x_min":35,"x_max":1029,"o":"m 654 1014 l 446 1014 l 446 1197 l 654 1197 l 654 1014 m 494 -14 q 158 116 282 -14 q 35 465 35 246 q 174 815 35 685 q 551 944 313 944 q 899 848 771 944 q 1028 585 1028 751 l 1028 574 l 796 574 l 796 585 q 737 706 796 667 q 546 744 678 744 q 321 682 386 744 q 256 465 256 619 q 319 249 256 311 q 536 186 382 186 q 757 217 697 186 q 821 338 817 249 l 506 338 l 506 492 l 1029 492 l 1029 0 l 836 0 l 836 200 l 825 200 q 494 -14 769 -14 z "},"ġ":{"ha":896,"x_min":35,"x_max":840,"o":"m 544 778 l 336 778 l 336 961 l 544 961 l 544 778 m 361 71 q 121 156 207 71 q 35 390 35 242 q 124 624 35 538 q 369 710 214 710 q 548 663 478 710 q 635 528 618 617 l 646 528 l 646 696 l 840 696 l 840 101 q 444 -250 840 -250 q 176 -178 274 -250 q 78 25 78 -106 l 286 25 q 320 -56 286 -35 q 458 -76 354 -76 q 597 -44 561 -76 q 632 88 632 -12 l 632 244 l 621 244 q 538 117 603 164 q 361 71 474 71 m 290 498 q 267 482 290 498 q 244 390 244 467 q 289 282 244 314 q 433 250 333 250 q 583 281 535 250 q 632 383 632 313 l 632 399 q 584 499 632 468 q 436 529 536 529 q 290 498 335 529 z "},"Ģ":{"ha":1075,"x_min":35,"x_max":1029,"o":"m 494 -14 q 158 116 282 -14 q 35 465 35 246 q 174 815 35 685 q 551 944 313 944 q 899 848 771 944 q 1028 585 1028 751 l 1028 574 l 796 574 l 796 585 q 737 706 796 667 q 546 744 678 744 q 321 682 386 744 q 256 465 256 619 q 319 249 256 311 q 536 186 382 186 q 757 217 697 186 q 821 338 817 249 l 506 338 l 506 492 l 1029 492 l 1029 0 l 836 0 l 836 200 l 825 200 q 494 -14 769 -14 m 490 -278 l 250 -278 l 396 -97 l 693 -97 l 490 -278 z "},"ģ":{"ha":896,"x_min":35,"x_max":840,"o":"m 472 958 l 681 958 l 556 778 l 286 778 l 472 958 m 361 71 q 121 156 207 71 q 35 390 35 242 q 124 624 35 538 q 369 710 214 710 q 548 663 478 710 q 635 528 618 617 l 646 528 l 646 696 l 840 696 l 840 101 q 444 -250 840 -250 q 176 -178 274 -250 q 78 25 78 -106 l 286 25 q 320 -56 286 -35 q 458 -76 354 -76 q 597 -44 561 -76 q 632 88 632 -12 l 632 244 l 621 244 q 538 117 603 164 q 361 71 474 71 m 290 498 q 267 482 290 498 q 244 390 244 467 q 289 282 244 314 q 433 250 333 250 q 583 281 535 250 q 632 383 632 313 l 632 399 q 584 499 632 468 q 436 529 536 529 q 290 498 335 529 z "},"Ĥ":{"ha":1014,"x_min":56,"x_max":958,"o":"m 422 1014 l 199 1014 l 382 1194 l 631 1194 l 815 1014 l 592 1014 l 514 1094 l 500 1094 l 422 1014 m 264 0 l 56 0 l 56 931 l 264 931 l 264 561 l 750 561 l 750 931 l 958 931 l 958 0 l 750 0 l 750 374 l 264 374 l 264 0 z "},"ĥ":{"ha":886,"x_min":-151,"x_max":836,"o":"m 72 1014 l -151 1014 l 32 1194 l 281 1194 l 465 1014 l 242 1014 l 164 1094 l 150 1094 l 72 1014 m 264 0 l 56 0 l 56 931 l 264 931 l 264 483 l 275 483 q 363 646 293 582 q 557 710 432 710 q 765 631 693 710 q 836 426 836 553 l 836 0 l 628 0 l 628 364 q 587 487 628 451 q 447 522 546 522 q 305 481 346 522 q 264 349 264 439 l 264 0 z "},"Ħ":{"ha":1014,"x_min":-53,"x_max":1067,"o":"m 264 0 l 56 0 l 56 657 l -53 657 l -53 844 l 56 844 l 56 931 l 264 931 l 264 844 l 750 844 l 750 931 l 958 931 l 958 844 l 1067 844 l 1067 657 l 958 657 l 958 0 l 750 0 l 750 374 l 264 374 l 264 0 m 264 561 l 750 561 l 750 657 l 264 657 l 264 561 z "},"ħ":{"ha":935,"x_min":-3,"x_max":889,"o":"m 317 0 l 107 0 l 107 686 l -3 686 l -3 843 l 107 843 l 107 931 l 317 931 l 317 843 l 517 843 l 517 686 l 317 686 l 317 422 l 328 422 q 416 583 346 519 q 611 647 486 647 q 817 569 746 647 q 889 364 889 490 l 889 0 l 681 0 l 681 301 q 640 424 681 389 q 501 460 600 460 q 358 418 399 460 q 317 286 317 376 l 317 0 z "},"Ĩ":{"ha":318,"x_min":-99,"x_max":418,"o":"m 40 1006 l -99 1006 l -99 1068 q 29 1210 -99 1210 q 144 1179 75 1210 l 186 1161 q 246 1142 228 1142 q 279 1182 279 1142 l 279 1200 l 418 1200 l 418 1139 q 388 1035 418 1074 q 299 996 358 996 q 179 1026 247 996 l 125 1047 q 69 1065 89 1065 q 40 1032 40 1065 l 40 1006 m 264 0 l 56 0 l 56 931 l 264 931 l 264 0 z "},"ĩ":{"ha":344,"x_min":-86,"x_max":431,"o":"m 54 769 l -86 769 l -86 832 q 43 974 -86 974 q 158 943 86 974 l 200 925 q 258 906 239 906 q 293 946 293 906 l 293 964 l 431 964 l 431 903 q 401 799 431 838 q 311 760 371 760 q 193 790 260 760 l 139 811 q 83 829 100 829 q 54 797 54 829 l 54 769 m 276 0 l 68 0 l 68 694 l 276 694 l 276 0 z "},"Ī":{"ha":318,"x_min":-68,"x_max":386,"o":"m 386 1033 l -68 1033 l -68 1182 l 386 1182 l 386 1033 m 264 0 l 56 0 l 56 931 l 264 931 l 264 0 z "},"ī":{"ha":344,"x_min":-56,"x_max":400,"o":"m 400 793 l -56 793 l -56 943 l 400 943 l 400 793 m 276 0 l 68 0 l 68 694 l 276 694 l 276 0 z "},"Ĭ":{"ha":318,"x_min":-64,"x_max":383,"o":"m 322 1051 q 291 1025 322 1051 q 160 1000 260 1000 q -2 1051 60 1000 q -64 1182 -64 1101 l -64 1199 l 83 1199 l 83 1185 q 99 1140 83 1154 q 160 1126 115 1126 q 220 1140 204 1126 q 236 1185 236 1154 l 236 1199 l 383 1199 l 383 1182 q 322 1051 383 1101 m 264 0 l 56 0 l 56 931 l 264 931 l 264 0 z "},"ĭ":{"ha":344,"x_min":-51,"x_max":397,"o":"m 335 815 q 303 789 335 815 q 172 764 272 764 q 10 815 72 764 q -51 946 -51 865 l -51 960 l 96 960 l 96 949 q 112 901 96 914 q 172 888 128 888 q 233 901 218 888 q 249 949 249 914 l 249 960 l 397 960 l 397 946 q 335 815 397 865 m 276 0 l 68 0 l 68 694 l 276 694 l 276 0 z "},"Į":{"ha":318,"x_min":25,"x_max":290,"o":"m 290 -260 l 164 -260 q 25 -162 25 -260 q 37 -115 25 -139 q 58 -78 49 -90 q 92 -39 68 -67 l 128 0 l 56 0 l 56 931 l 264 931 l 264 0 l 203 -76 q 183 -114 183 -100 q 211 -135 183 -135 l 290 -135 l 290 -260 z "},"į":{"ha":318,"x_min":25,"x_max":290,"o":"m 264 767 l 56 767 l 56 931 l 264 931 l 264 767 m 290 -260 l 164 -260 q 25 -162 25 -260 q 37 -115 25 -139 q 58 -78 49 -90 q 92 -39 68 -67 l 128 0 l 56 0 l 56 696 l 264 696 l 264 0 l 203 -76 q 183 -114 183 -100 q 211 -135 183 -135 l 290 -135 l 290 -260 z "},"İ":{"ha":318,"x_min":56,"x_max":264,"o":"m 264 1014 l 56 1014 l 56 1197 l 264 1197 l 264 1014 m 264 0 l 56 0 l 56 931 l 264 931 l 264 0 z "},"ı":{"ha":344,"x_min":68,"x_max":276,"o":"m 276 0 l 68 0 l 68 694 l 276 694 l 276 0 z "},"Ĳ":{"ha":1219,"x_min":56,"x_max":1169,"o":"m 264 0 l 56 0 l 56 931 l 264 931 l 264 0 m 753 -14 q 437 86 535 -14 q 339 378 339 186 l 339 418 l 560 418 l 560 378 q 597 229 560 269 q 753 189 633 189 q 910 228 872 189 q 949 368 949 267 l 949 931 l 1169 931 l 1169 368 q 1071 84 1169 182 q 753 -14 972 -14 z "},"ĳ":{"ha":638,"x_min":56,"x_max":582,"o":"m 264 767 l 56 767 l 56 931 l 264 931 l 264 767 m 582 767 l 374 767 l 374 931 l 582 931 l 582 767 m 264 0 l 56 0 l 56 696 l 264 696 l 264 0 m 301 -236 l 268 -236 l 268 -81 l 304 -81 q 374 -14 374 -81 l 374 696 l 582 696 l 582 19 q 512 -179 582 -122 q 301 -236 442 -236 z "},"Ĵ":{"ha":900,"x_min":21,"x_max":1050,"o":"m 657 1014 l 435 1014 l 618 1194 l 867 1194 l 1050 1014 l 826 1014 l 750 1094 l 736 1094 l 657 1014 m 435 -14 q 119 86 217 -14 q 21 378 21 186 l 21 418 l 242 418 l 242 378 q 278 229 242 269 q 435 189 315 189 q 592 228 553 189 q 631 368 631 267 l 631 931 l 851 931 l 851 368 q 753 84 851 182 q 435 -14 654 -14 z "},"ĵ":{"ha":319,"x_min":-149,"x_max":468,"o":"m 75 778 l -149 778 l 35 958 l 283 958 l 468 778 l 243 778 l 167 858 l 153 858 l 75 778 m -17 -236 l -51 -236 l -51 -81 l -14 -81 q 56 -14 56 -81 l 56 696 l 264 696 l 264 19 q 193 -178 264 -121 q -17 -236 122 -236 z "},"Ķ":{"ha":990,"x_min":56,"x_max":993,"o":"m 264 0 l 56 0 l 56 931 l 264 931 l 264 561 l 496 561 l 743 931 l 993 931 l 669 472 l 989 0 l 739 0 l 499 358 l 264 358 l 264 0 m 468 -278 l 229 -278 l 374 -97 l 672 -97 l 468 -278 z "},"ķ":{"ha":842,"x_min":56,"x_max":847,"o":"m 264 0 l 56 0 l 56 931 l 264 931 l 264 438 l 422 438 l 600 696 l 847 696 l 593 360 l 843 0 l 597 0 l 424 251 l 264 251 l 264 0 m 399 -278 l 189 -278 l 315 -97 l 583 -97 l 399 -278 z "},"Ĺ":{"ha":846,"x_min":56,"x_max":818,"o":"m 278 1014 l 56 1014 l 236 1196 l 535 1196 l 278 1014 m 818 0 l 56 0 l 56 931 l 264 931 l 264 188 l 818 188 l 818 0 z "},"ĺ":{"ha":318,"x_min":56,"x_max":535,"o":"m 279 1014 l 56 1014 l 236 1196 l 535 1196 l 279 1014 m 264 0 l 56 0 l 56 931 l 264 931 l 264 0 z "},"Ļ":{"ha":846,"x_min":56,"x_max":818,"o":"m 818 0 l 56 0 l 56 931 l 264 931 l 264 188 l 818 188 l 818 0 m 400 -278 l 160 -278 l 306 -97 l 603 -97 l 400 -278 z "},"ļ":{"ha":318,"x_min":-104,"x_max":290,"o":"m 264 0 l 56 0 l 56 931 l 264 931 l 264 0 m 106 -278 l -104 -278 l 22 -97 l 290 -97 l 106 -278 z "},"Ľ":{"ha":846,"x_min":56,"x_max":818,"o":"m 818 0 l 56 0 l 56 931 l 264 931 l 264 188 l 818 188 l 818 0 m 538 482 l 464 482 l 464 619 l 532 619 q 564 628 554 619 q 574 663 574 636 l 574 688 l 456 688 l 456 931 l 724 931 l 724 665 q 538 482 724 482 z "},"ľ":{"ha":546,"x_min":56,"x_max":543,"o":"m 264 0 l 56 0 l 56 931 l 264 931 l 264 0 m 406 603 l 350 603 l 350 704 l 400 704 q 426 710 418 704 q 433 736 433 717 l 433 753 l 344 753 l 344 931 l 543 931 l 543 739 q 406 603 543 603 z "},"Ŀ":{"ha":846,"x_min":56,"x_max":818,"o":"m 271 1014 l 63 1014 l 63 1197 l 271 1197 l 271 1014 m 818 0 l 56 0 l 56 931 l 264 931 l 264 188 l 818 188 l 818 0 z "},"ŀ":{"ha":517,"x_min":56,"x_max":522,"o":"m 264 0 l 56 0 l 56 931 l 264 931 l 264 0 m 522 374 l 314 374 l 314 557 l 522 557 l 522 374 z "},"Ł":{"ha":919,"x_min":14,"x_max":892,"o":"m 638 514 l 338 406 l 338 188 l 892 188 l 892 0 l 129 0 l 129 331 l 14 289 l 14 483 l 129 525 l 129 931 l 338 931 l 338 600 l 638 708 l 638 514 z "},"ł":{"ha":507,"x_min":-14,"x_max":521,"o":"m 361 0 l 153 0 l 153 414 l 46 363 l -14 482 l 153 561 l 153 931 l 361 931 l 361 661 l 461 708 l 521 589 l 361 513 l 361 0 z "},"Ń":{"ha":1008,"x_min":56,"x_max":953,"o":"m 615 1014 l 392 1014 l 574 1196 l 872 1196 l 615 1014 m 264 0 l 56 0 l 56 931 l 278 931 l 611 490 l 739 294 l 754 294 l 744 482 l 744 931 l 953 931 l 953 0 l 731 0 l 388 444 l 269 619 l 256 619 l 264 449 l 264 0 z "},"ń":{"ha":875,"x_min":56,"x_max":825,"o":"m 551 778 l 328 778 l 510 958 l 808 958 l 551 778 m 264 0 l 56 0 l 56 696 l 249 696 l 249 482 l 261 482 q 347 644 276 579 q 544 710 417 710 q 753 633 682 710 q 825 433 825 556 l 825 0 l 617 0 l 617 364 q 577 485 617 449 q 443 522 538 522 q 305 482 346 522 q 264 351 264 442 l 264 0 z "},"Ņ":{"ha":1008,"x_min":56,"x_max":953,"o":"m 264 0 l 56 0 l 56 931 l 278 931 l 611 490 l 739 294 l 754 294 l 744 482 l 744 931 l 953 931 l 953 0 l 731 0 l 388 444 l 269 619 l 256 619 l 264 449 l 264 0 m 467 -278 l 228 -278 l 372 -97 l 671 -97 l 467 -278 z "},"ņ":{"ha":875,"x_min":56,"x_max":825,"o":"m 264 0 l 56 0 l 56 696 l 249 696 l 249 482 l 261 482 q 347 644 276 579 q 544 710 417 710 q 753 633 682 710 q 825 433 825 556 l 825 0 l 617 0 l 617 364 q 577 485 617 449 q 443 522 538 522 q 305 482 346 522 q 264 351 264 442 l 264 0 m 396 -278 l 188 -278 l 314 -97 l 582 -97 l 396 -278 z "},"Ň":{"ha":1008,"x_min":56,"x_max":953,"o":"m 589 1194 l 813 1194 l 629 1014 l 381 1014 l 196 1194 l 419 1194 l 497 1114 l 511 1114 l 589 1194 m 264 0 l 56 0 l 56 931 l 278 931 l 611 490 l 739 294 l 754 294 l 744 482 l 744 931 l 953 931 l 953 0 l 731 0 l 388 444 l 269 619 l 256 619 l 264 449 l 264 0 z "},"ň":{"ha":875,"x_min":56,"x_max":825,"o":"m 564 778 l 315 778 l 132 958 l 363 958 l 433 878 l 447 878 l 517 958 l 749 958 l 564 778 m 264 0 l 56 0 l 56 696 l 249 696 l 249 482 l 261 482 q 347 644 276 579 q 544 710 417 710 q 753 633 682 710 q 825 433 825 556 l 825 0 l 617 0 l 617 364 q 577 485 617 449 q 443 522 538 522 q 305 482 346 522 q 264 351 264 442 l 264 0 z "},"Ŋ":{"ha":1008,"x_min":56,"x_max":953,"o":"m 647 -236 l 510 -236 l 510 -49 l 644 -49 q 713 -37 696 -49 q 729 3 729 -26 l 396 433 l 269 619 l 256 619 l 264 438 l 264 0 l 56 0 l 56 931 l 278 931 l 603 500 l 739 294 l 754 294 l 744 492 l 744 931 l 953 931 l 953 54 q 875 -172 953 -107 q 647 -236 797 -236 z "},"ŋ":{"ha":868,"x_min":51,"x_max":822,"o":"m 260 0 l 51 0 l 51 696 l 246 696 l 246 482 l 257 482 q 342 644 272 579 q 540 710 413 710 q 750 633 678 710 q 822 433 822 556 l 822 -18 q 540 -236 822 -236 l 507 -236 l 507 -81 l 544 -81 q 614 -14 614 -81 l 614 364 q 574 485 614 449 q 439 522 533 522 q 301 482 342 522 q 260 351 260 442 l 260 0 z "},"Ō":{"ha":1075,"x_min":35,"x_max":1040,"o":"m 764 1033 l 310 1033 l 310 1182 l 764 1182 l 764 1033 m 535 -14 q 169 117 304 -14 q 35 465 35 247 q 169 814 35 683 q 535 944 304 944 q 905 815 769 944 q 1040 465 1040 685 q 905 116 1040 246 q 535 -14 769 -14 m 318 249 q 349 217 318 249 q 535 186 381 186 q 753 249 689 186 q 818 465 818 311 q 753 682 818 619 q 535 744 689 744 q 318 682 381 744 q 256 465 256 619 q 318 249 256 311 z "},"ō":{"ha":853,"x_min":29,"x_max":824,"o":"m 653 793 l 199 793 l 199 943 l 653 943 l 653 793 m 715 85 q 660 35 715 85 q 426 -14 606 -14 q 138 85 247 -14 q 29 347 29 183 q 138 611 29 513 q 426 710 247 710 q 715 611 606 710 q 824 347 824 513 q 715 85 824 183 m 279 213 q 301 192 279 213 q 426 171 322 171 q 574 213 531 171 q 617 347 617 254 q 573 483 617 440 q 426 526 529 526 q 279 484 322 526 q 236 347 236 442 q 279 213 236 254 z "},"Ŏ":{"ha":1075,"x_min":35,"x_max":1040,"o":"m 699 1051 q 668 1025 699 1051 q 538 1000 638 1000 q 376 1051 438 1000 q 314 1182 314 1101 l 314 1199 l 461 1199 l 461 1185 q 477 1140 461 1154 q 538 1126 493 1126 q 598 1140 582 1126 q 614 1185 614 1154 l 614 1199 l 761 1199 l 761 1182 q 699 1051 761 1101 m 535 -14 q 169 117 304 -14 q 35 465 35 247 q 169 814 35 683 q 535 944 304 944 q 905 815 769 944 q 1040 465 1040 685 q 905 116 1040 246 q 535 -14 769 -14 m 318 249 q 349 217 318 249 q 535 186 381 186 q 753 249 689 186 q 818 465 818 311 q 753 682 818 619 q 535 744 689 744 q 318 682 381 744 q 256 465 256 619 q 318 249 256 311 z "},"ŏ":{"ha":853,"x_min":29,"x_max":824,"o":"m 588 815 q 557 789 588 815 q 426 764 526 764 q 265 815 326 764 q 203 946 203 865 l 203 960 l 350 960 l 350 949 q 366 901 350 914 q 426 888 382 888 q 488 901 472 888 q 503 949 503 914 l 503 960 l 650 960 l 650 946 q 588 815 650 865 m 715 85 q 660 35 715 85 q 426 -14 606 -14 q 138 85 247 -14 q 29 347 29 183 q 138 611 29 513 q 426 710 247 710 q 715 611 606 710 q 824 347 824 513 q 715 85 824 183 m 279 213 q 301 192 279 213 q 426 171 322 171 q 574 213 531 171 q 617 347 617 254 q 573 483 617 440 q 426 526 529 526 q 279 484 322 526 q 236 347 236 442 q 279 213 236 254 z "},"Ő":{"ha":1075,"x_min":35,"x_max":1040,"o":"m 785 1014 l 575 1014 l 696 1196 l 965 1196 l 785 1014 m 436 1014 l 226 1014 l 346 1196 l 618 1196 l 436 1014 m 535 -14 q 169 117 304 -14 q 35 465 35 247 q 169 814 35 683 q 535 944 304 944 q 905 815 769 944 q 1040 465 1040 685 q 905 116 1040 246 q 535 -14 769 -14 m 318 249 q 349 217 318 249 q 535 186 381 186 q 753 249 689 186 q 818 465 818 311 q 753 682 818 619 q 535 744 689 744 q 318 682 381 744 q 256 465 256 619 q 318 249 256 311 z "},"ő":{"ha":853,"x_min":29,"x_max":867,"o":"m 685 778 l 475 778 l 596 958 l 867 958 l 685 778 m 336 778 l 126 778 l 246 958 l 518 958 l 336 778 m 715 85 q 660 35 715 85 q 426 -14 606 -14 q 138 85 247 -14 q 29 347 29 183 q 138 611 29 513 q 426 710 247 710 q 715 611 606 710 q 824 347 824 513 q 715 85 824 183 m 279 213 q 301 192 279 213 q 426 171 322 171 q 574 213 531 171 q 617 347 617 254 q 573 483 617 440 q 426 526 529 526 q 279 484 322 526 q 236 347 236 442 q 279 213 236 254 z "},"Œ":{"ha":1556,"x_min":35,"x_max":1517,"o":"m 1517 0 l 518 0 q 165 124 296 0 q 35 465 35 249 q 165 806 35 682 q 518 931 296 931 l 1517 931 l 1517 743 l 938 743 l 938 561 l 1496 561 l 1496 375 l 938 375 l 938 188 l 1517 188 l 1517 0 m 518 188 l 729 188 l 729 743 l 518 743 q 317 685 375 743 q 258 465 258 628 q 317 245 258 303 q 518 188 375 188 z "},"œ":{"ha":1429,"x_min":29,"x_max":1394,"o":"m 426 -14 q 138 85 247 -14 q 29 347 29 183 q 138 611 29 513 q 426 710 247 710 q 725 601 617 710 q 1015 710 831 710 q 1292 622 1190 710 q 1394 372 1394 533 q 1390 306 1394 342 l 824 306 q 870 188 828 224 q 1013 153 913 153 q 1141 176 1103 153 q 1179 244 1179 199 l 1179 258 l 1388 258 l 1388 243 q 1286 58 1388 129 q 1019 -14 1185 -14 q 721 90 821 -14 q 426 -14 610 -14 m 1147 516 q 1125 532 1147 516 q 1011 547 1103 547 q 876 516 919 547 q 826 415 833 485 l 1196 415 q 1147 516 1190 485 m 279 213 q 301 192 279 213 q 426 171 322 171 q 574 213 531 171 q 617 347 617 254 q 573 483 617 440 q 426 526 529 526 q 279 484 322 526 q 236 347 236 442 q 279 213 236 254 z "},"Ŕ":{"ha":961,"x_min":56,"x_max":951,"o":"m 593 1014 l 369 1014 l 550 1196 l 849 1196 l 593 1014 m 264 0 l 56 0 l 56 931 l 569 931 q 835 858 742 931 q 929 651 929 785 q 667 393 929 418 l 667 382 q 756 336 725 367 q 817 250 788 306 l 951 0 l 710 0 l 582 242 q 517 317 553 297 q 401 338 481 338 l 264 338 l 264 0 m 264 743 l 264 494 l 568 494 q 678 522 644 494 q 711 619 711 549 q 677 715 711 688 q 568 743 643 743 l 264 743 z "},"ŕ":{"ha":733,"x_min":56,"x_max":753,"o":"m 496 778 l 272 778 l 454 958 l 753 958 l 496 778 m 264 0 l 56 0 l 56 696 l 249 696 l 249 511 l 261 511 q 335 656 276 601 q 494 710 394 710 q 660 643 606 710 q 714 467 714 576 l 714 351 l 506 351 l 506 424 q 479 508 506 482 q 390 533 453 533 q 293 501 322 533 q 264 403 264 469 l 264 0 z "},"Ŗ":{"ha":961,"x_min":56,"x_max":951,"o":"m 264 0 l 56 0 l 56 931 l 569 931 q 835 858 742 931 q 929 651 929 785 q 667 393 929 418 l 667 382 q 756 336 725 367 q 817 250 788 306 l 951 0 l 710 0 l 582 242 q 517 317 553 297 q 401 338 481 338 l 264 338 l 264 0 m 264 743 l 264 494 l 568 494 q 678 522 644 494 q 711 619 711 549 q 677 715 711 688 q 568 743 643 743 l 264 743 m 444 -278 l 204 -278 l 350 -97 l 647 -97 l 444 -278 z "},"ŗ":{"ha":733,"x_min":-104,"x_max":714,"o":"m 264 0 l 56 0 l 56 696 l 249 696 l 249 511 l 261 511 q 335 656 276 601 q 494 710 394 710 q 660 643 606 710 q 714 467 714 576 l 714 351 l 506 351 l 506 424 q 479 508 506 482 q 390 533 453 533 q 293 501 322 533 q 264 403 264 469 l 264 0 m 106 -278 l -104 -278 l 22 -97 l 290 -97 l 106 -278 z "},"Ř":{"ha":961,"x_min":56,"x_max":951,"o":"m 567 1194 l 789 1194 l 606 1014 l 358 1014 l 174 1194 l 397 1194 l 475 1114 l 489 1114 l 567 1194 m 264 0 l 56 0 l 56 931 l 569 931 q 835 858 742 931 q 929 651 929 785 q 667 393 929 418 l 667 382 q 756 336 725 367 q 817 250 788 306 l 951 0 l 710 0 l 582 242 q 517 317 553 297 q 401 338 481 338 l 264 338 l 264 0 m 264 743 l 264 494 l 568 494 q 678 522 644 494 q 711 619 711 549 q 677 715 711 688 q 568 743 643 743 l 264 743 z "},"ř":{"ha":733,"x_min":56,"x_max":714,"o":"m 508 778 l 260 778 l 76 958 l 307 958 l 376 878 l 392 878 l 461 958 l 692 958 l 508 778 m 264 0 l 56 0 l 56 696 l 249 696 l 249 511 l 261 511 q 335 656 276 601 q 494 710 394 710 q 660 643 606 710 q 714 467 714 576 l 714 351 l 506 351 l 506 424 q 479 508 506 482 q 390 533 453 533 q 293 501 322 533 q 264 403 264 469 l 264 0 z "},"Ś":{"ha":921,"x_min":29,"x_max":892,"o":"m 569 1014 l 347 1014 l 528 1196 l 826 1196 l 569 1014 m 478 -14 q 151 69 265 -14 q 38 314 38 153 l 38 322 l 246 322 l 246 297 q 293 203 246 231 q 478 176 340 176 q 641 196 599 176 q 683 264 683 215 q 656 326 683 306 q 556 358 628 346 l 294 396 q 29 657 29 438 q 134 860 29 776 q 456 944 239 944 q 769 857 664 944 q 875 617 875 769 l 875 608 l 665 608 l 665 628 q 617 726 665 697 q 435 754 569 754 q 282 733 325 754 q 239 665 239 711 q 263 607 239 625 q 347 578 288 589 l 608 536 q 892 274 892 490 q 789 68 892 150 q 478 -14 686 -14 z "},"ś":{"ha":781,"x_min":31,"x_max":757,"o":"m 500 778 l 276 778 l 458 958 l 757 958 l 500 778 m 407 -14 q 138 52 232 -14 q 43 239 43 118 l 43 243 l 251 243 l 251 231 q 285 168 251 185 q 408 151 318 151 q 517 165 489 151 q 546 211 546 179 q 526 252 546 240 q 443 272 506 264 l 247 296 q 31 490 31 319 q 117 649 31 588 q 374 710 203 710 q 638 645 546 710 q 731 454 731 581 l 731 450 l 522 450 l 522 458 q 490 524 522 504 q 367 544 458 544 q 263 531 290 544 q 236 482 236 517 q 258 441 236 454 q 347 419 281 428 l 496 401 q 692 338 633 386 q 751 203 751 290 q 659 45 751 104 q 407 -14 567 -14 z "},"Ŝ":{"ha":921,"x_min":29,"x_max":892,"o":"m 374 1014 l 150 1014 l 333 1194 l 582 1194 l 767 1014 l 543 1014 l 465 1094 l 451 1094 l 374 1014 m 478 -14 q 151 69 265 -14 q 38 314 38 153 l 38 322 l 246 322 l 246 297 q 293 203 246 231 q 478 176 340 176 q 641 196 599 176 q 683 264 683 215 q 656 326 683 306 q 556 358 628 346 l 294 396 q 29 657 29 438 q 134 860 29 776 q 456 944 239 944 q 769 857 664 944 q 875 617 875 769 l 875 608 l 665 608 l 665 628 q 617 726 665 697 q 435 754 569 754 q 282 733 325 754 q 239 665 239 711 q 263 607 239 625 q 347 578 288 589 l 608 536 q 892 274 892 490 q 789 68 892 150 q 478 -14 686 -14 z "},"ŝ":{"ha":781,"x_min":31,"x_max":751,"o":"m 303 778 l 81 778 l 264 958 l 513 958 l 696 778 l 472 778 l 396 858 l 382 858 l 303 778 m 407 -14 q 138 52 232 -14 q 43 239 43 118 l 43 243 l 251 243 l 251 231 q 285 168 251 185 q 408 151 318 151 q 517 165 489 151 q 546 211 546 179 q 526 252 546 240 q 443 272 506 264 l 247 296 q 31 490 31 319 q 117 649 31 588 q 374 710 203 710 q 638 645 546 710 q 731 454 731 581 l 731 450 l 522 450 l 522 458 q 490 524 522 504 q 367 544 458 544 q 263 531 290 544 q 236 482 236 517 q 258 441 236 454 q 347 419 281 428 l 496 401 q 692 338 633 386 q 751 203 751 290 q 659 45 751 104 q 407 -14 567 -14 z "},"Ş":{"ha":921,"x_min":29,"x_max":892,"o":"m 478 -14 l 474 -14 l 474 -60 l 499 -60 q 606 -94 568 -60 q 644 -187 644 -128 q 606 -283 644 -247 q 499 -318 568 -318 l 360 -318 l 360 -207 l 501 -207 q 525 -189 525 -207 q 501 -169 525 -169 l 365 -169 l 365 -7 q 122 94 206 13 q 38 314 38 175 l 38 322 l 246 322 l 246 297 q 293 203 246 231 q 478 176 340 176 q 641 196 599 176 q 683 264 683 215 q 656 326 683 306 q 556 358 628 346 l 294 396 q 29 657 29 438 q 134 860 29 776 q 456 944 239 944 q 769 857 664 944 q 875 617 875 769 l 875 608 l 665 608 l 665 628 q 617 726 665 697 q 435 754 569 754 q 282 733 325 754 q 239 665 239 711 q 263 607 239 625 q 347 578 288 589 l 608 536 q 892 274 892 490 q 789 68 892 150 q 478 -14 686 -14 z "},"ş":{"ha":781,"x_min":31,"x_max":751,"o":"m 465 -318 l 328 -318 l 328 -207 l 468 -207 q 492 -189 492 -207 q 468 -169 492 -169 l 332 -169 l 332 -11 q 117 67 192 3 q 43 239 43 132 l 43 243 l 251 243 l 251 231 q 285 168 251 185 q 408 151 318 151 q 517 165 489 151 q 546 211 546 179 q 526 252 546 240 q 443 272 506 264 l 247 296 q 31 490 31 319 q 117 649 31 588 q 374 710 203 710 q 638 645 546 710 q 731 454 731 581 l 731 450 l 522 450 l 522 458 q 490 524 522 504 q 367 544 458 544 q 263 531 290 544 q 236 482 236 517 q 258 441 236 454 q 347 419 281 428 l 496 401 q 692 338 633 386 q 751 203 751 290 q 669 51 751 110 q 440 -12 586 -7 l 440 -60 l 465 -60 q 574 -94 536 -60 q 613 -187 613 -128 q 574 -283 613 -249 q 465 -318 536 -318 z "},"Š":{"ha":921,"x_min":29,"x_max":892,"o":"m 544 1194 l 767 1194 l 583 1014 l 335 1014 l 150 1194 l 375 1194 l 451 1114 l 465 1114 l 544 1194 m 478 -14 q 151 69 265 -14 q 38 314 38 153 l 38 322 l 246 322 l 246 297 q 293 203 246 231 q 478 176 340 176 q 641 196 599 176 q 683 264 683 215 q 656 326 683 306 q 556 358 628 346 l 294 396 q 29 657 29 438 q 134 860 29 776 q 456 944 239 944 q 769 857 664 944 q 875 617 875 769 l 875 608 l 665 608 l 665 628 q 617 726 665 697 q 435 754 569 754 q 282 733 325 754 q 239 665 239 711 q 263 607 239 625 q 347 578 288 589 l 608 536 q 892 274 892 490 q 789 68 892 150 q 478 -14 686 -14 z "},"š":{"ha":781,"x_min":31,"x_max":751,"o":"m 513 778 l 264 778 l 81 958 l 311 958 l 382 878 l 396 878 l 465 958 l 696 958 l 513 778 m 407 -14 q 138 52 232 -14 q 43 239 43 118 l 43 243 l 251 243 l 251 231 q 285 168 251 185 q 408 151 318 151 q 517 165 489 151 q 546 211 546 179 q 526 252 546 240 q 443 272 506 264 l 247 296 q 31 490 31 319 q 117 649 31 588 q 374 710 203 710 q 638 645 546 710 q 731 454 731 581 l 731 450 l 522 450 l 522 458 q 490 524 522 504 q 367 544 458 544 q 263 531 290 544 q 236 482 236 517 q 258 441 236 454 q 347 419 281 428 l 496 401 q 692 338 633 386 q 751 203 751 290 q 659 45 751 104 q 407 -14 567 -14 z "},"Ţ":{"ha":939,"x_min":19,"x_max":919,"o":"m 574 0 l 499 0 l 499 -60 l 522 -60 q 631 -94 593 -60 q 669 -187 669 -128 q 631 -283 669 -249 q 522 -318 593 -318 l 385 -318 l 385 -207 l 525 -207 q 549 -189 549 -207 q 525 -169 549 -169 l 389 -169 l 389 0 l 365 0 l 365 743 l 19 743 l 19 931 l 919 931 l 919 743 l 574 743 l 574 0 z "},"ţ":{"ha":568,"x_min":3,"x_max":597,"o":"m 546 0 l 426 0 l 426 -60 l 450 -60 q 559 -94 521 -60 q 597 -187 597 -128 q 559 -283 597 -249 q 450 -318 521 -318 l 313 -318 l 313 -207 l 453 -207 q 476 -189 476 -207 q 453 -169 476 -169 l 317 -169 l 317 4 q 113 251 113 31 l 113 524 l 3 524 l 3 696 l 113 696 l 113 831 l 321 831 l 321 696 l 546 696 l 546 524 l 321 524 l 321 275 q 342 206 321 224 q 421 188 364 188 l 546 188 l 546 0 z "},"Ť":{"ha":939,"x_min":19,"x_max":919,"o":"m 556 1194 l 778 1194 l 594 1014 l 346 1014 l 163 1194 l 386 1194 l 463 1114 l 476 1114 l 556 1194 m 574 0 l 365 0 l 365 743 l 19 743 l 19 931 l 919 931 l 919 743 l 574 743 l 574 0 z "},"ť":{"ha":506,"x_min":3,"x_max":568,"o":"m 429 764 l 375 764 l 375 865 l 425 865 q 449 872 442 865 q 457 897 457 879 l 457 915 l 369 915 l 369 1092 l 568 1092 l 568 900 q 429 764 568 764 m 546 0 l 374 0 q 113 251 113 0 l 113 524 l 3 524 l 3 696 l 113 696 l 113 831 l 321 831 l 321 696 l 546 696 l 546 524 l 321 524 l 321 275 q 342 206 321 224 q 421 188 364 188 l 546 188 l 546 0 z "},"Ŧ":{"ha":939,"x_min":19,"x_max":919,"o":"m 574 0 l 365 0 l 365 365 l 156 365 l 156 551 l 365 551 l 365 743 l 19 743 l 19 931 l 919 931 l 919 743 l 574 743 l 574 551 l 785 551 l 785 365 l 574 365 l 574 0 z "},"ŧ":{"ha":568,"x_min":3,"x_max":546,"o":"m 546 0 l 374 0 q 113 251 113 0 l 113 310 l 3 310 l 3 458 l 113 458 l 113 544 l 3 544 l 3 696 l 113 696 l 113 831 l 321 831 l 321 696 l 546 696 l 546 544 l 321 544 l 321 458 l 546 458 l 546 310 l 321 310 l 321 275 q 342 206 321 224 q 421 188 364 188 l 546 188 l 546 0 z "},"Ũ":{"ha":1013,"x_min":49,"x_max":963,"o":"m 388 1006 l 247 1006 l 247 1068 q 376 1210 247 1210 q 492 1179 422 1210 l 533 1161 q 592 1142 572 1142 q 626 1182 626 1142 l 626 1200 l 765 1200 l 765 1139 q 735 1035 765 1074 q 644 996 706 996 q 526 1026 593 996 l 472 1047 q 417 1065 436 1065 q 388 1032 388 1065 l 388 1006 m 506 -14 q 165 92 282 -14 q 49 389 49 199 l 49 931 l 257 931 l 257 404 q 311 237 257 285 q 506 189 365 189 q 701 237 647 189 q 754 404 754 285 l 754 931 l 963 931 l 963 389 q 847 92 963 199 q 506 -14 731 -14 z "},"ũ":{"ha":886,"x_min":54,"x_max":835,"o":"m 325 769 l 185 769 l 185 832 q 314 974 185 974 q 429 943 360 974 l 471 925 q 529 906 510 906 q 564 946 564 906 l 564 964 l 703 964 l 703 903 q 673 799 703 838 q 582 760 643 760 q 464 790 531 760 l 410 811 q 354 829 371 829 q 325 797 325 829 l 325 769 m 343 -14 q 128 63 201 -14 q 54 263 54 140 l 54 696 l 263 696 l 263 332 q 303 210 263 247 q 442 172 344 172 q 584 213 542 172 q 626 343 626 253 l 626 696 l 835 696 l 835 0 l 640 0 l 640 213 l 629 213 q 542 51 614 115 q 343 -14 471 -14 z "},"Ū":{"ha":1013,"x_min":49,"x_max":963,"o":"m 733 1033 l 278 1033 l 278 1182 l 733 1182 l 733 1033 m 506 -14 q 165 92 282 -14 q 49 389 49 199 l 49 931 l 257 931 l 257 404 q 311 237 257 285 q 506 189 365 189 q 701 237 647 189 q 754 404 754 285 l 754 931 l 963 931 l 963 389 q 847 92 963 199 q 506 -14 731 -14 z "},"ū":{"ha":886,"x_min":54,"x_max":835,"o":"m 671 793 l 217 793 l 217 943 l 671 943 l 671 793 m 343 -14 q 128 63 201 -14 q 54 263 54 140 l 54 696 l 263 696 l 263 332 q 303 210 263 247 q 442 172 344 172 q 584 213 542 172 q 626 343 626 253 l 626 696 l 835 696 l 835 0 l 640 0 l 640 213 l 629 213 q 542 51 614 115 q 343 -14 471 -14 z "},"Ŭ":{"ha":1013,"x_min":49,"x_max":963,"o":"m 668 1051 q 637 1025 668 1051 q 506 1000 606 1000 q 344 1051 406 1000 q 282 1182 282 1101 l 282 1199 l 429 1199 l 429 1185 q 445 1140 429 1154 q 506 1126 461 1126 q 567 1140 551 1126 q 582 1185 582 1153 l 582 1199 l 731 1199 l 731 1182 q 668 1051 731 1101 m 506 -14 q 165 92 282 -14 q 49 389 49 199 l 49 931 l 257 931 l 257 404 q 311 237 257 285 q 506 189 365 189 q 701 237 647 189 q 754 404 754 285 l 754 931 l 963 931 l 963 389 q 847 92 963 199 q 506 -14 731 -14 z "},"ŭ":{"ha":886,"x_min":54,"x_max":835,"o":"m 606 815 q 575 789 606 815 q 444 764 544 764 q 282 815 344 764 q 219 946 219 865 l 219 960 l 368 960 l 368 949 q 383 901 368 914 q 444 888 399 888 q 506 901 490 888 q 521 949 521 914 l 521 960 l 668 960 l 668 946 q 606 815 668 865 m 343 -14 q 128 63 201 -14 q 54 263 54 140 l 54 696 l 263 696 l 263 332 q 303 210 263 247 q 442 172 344 172 q 584 213 542 172 q 626 343 626 253 l 626 696 l 835 696 l 835 0 l 640 0 l 640 213 l 629 213 q 542 51 614 115 q 343 -14 471 -14 z "},"Ů":{"ha":1013,"x_min":49,"x_max":963,"o":"m 628 990 q 604 970 628 990 q 506 950 581 950 q 384 990 431 950 q 338 1093 338 1029 q 385 1196 338 1157 q 506 1235 432 1235 q 628 1196 581 1235 q 675 1093 675 1157 q 628 990 675 1029 m 506 1047 q 553 1058 539 1047 q 567 1093 567 1068 q 553 1128 567 1118 q 506 1139 539 1139 q 460 1128 474 1139 q 446 1093 446 1118 q 460 1058 446 1068 q 506 1047 474 1047 m 506 -14 q 165 92 282 -14 q 49 389 49 199 l 49 931 l 257 931 l 257 404 q 311 237 257 285 q 506 189 365 189 q 701 237 647 189 q 754 404 754 285 l 754 931 l 963 931 l 963 389 q 847 92 963 199 q 506 -14 731 -14 z "},"ů":{"ha":886,"x_min":54,"x_max":835,"o":"m 444 756 q 340 789 379 756 q 300 878 300 822 q 340 967 300 933 q 444 1000 379 1000 q 548 967 508 1000 q 588 878 588 933 q 548 789 588 822 q 444 756 508 756 m 444 838 q 499 878 499 838 q 444 918 499 918 q 389 878 389 918 q 444 838 389 838 m 343 -14 q 128 63 201 -14 q 54 263 54 140 l 54 696 l 263 696 l 263 332 q 303 210 263 247 q 442 172 344 172 q 584 213 542 172 q 626 343 626 253 l 626 696 l 835 696 l 835 0 l 640 0 l 640 213 l 629 213 q 542 51 614 115 q 343 -14 471 -14 z "},"Ű":{"ha":1013,"x_min":49,"x_max":963,"o":"m 753 1014 l 544 1014 l 664 1196 l 935 1196 l 753 1014 m 404 1014 l 196 1014 l 315 1196 l 586 1196 l 404 1014 m 506 -14 q 165 92 282 -14 q 49 389 49 199 l 49 931 l 257 931 l 257 404 q 311 237 257 285 q 506 189 365 189 q 701 237 647 189 q 754 404 754 285 l 754 931 l 963 931 l 963 389 q 847 92 963 199 q 506 -14 731 -14 z "},"ű":{"ha":886,"x_min":54,"x_max":885,"o":"m 703 778 l 493 778 l 614 958 l 885 958 l 703 778 m 354 778 l 144 778 l 264 958 l 536 958 l 354 778 m 343 -14 q 128 63 201 -14 q 54 263 54 140 l 54 696 l 263 696 l 263 332 q 303 210 263 247 q 442 172 344 172 q 584 213 542 172 q 626 343 626 253 l 626 696 l 835 696 l 835 0 l 640 0 l 640 213 l 629 213 q 542 51 614 115 q 343 -14 471 -14 z "},"Ų":{"ha":1013,"x_min":49,"x_max":963,"o":"m 658 -260 l 532 -260 q 394 -162 394 -260 q 406 -115 394 -139 q 428 -78 417 -92 q 461 -39 439 -64 l 485 -14 q 160 97 271 -8 q 49 389 49 203 l 49 931 l 257 931 l 257 404 q 311 237 257 285 q 506 189 365 189 q 701 237 647 189 q 754 404 754 285 l 754 931 l 963 931 l 963 389 q 878 124 963 226 q 628 -4 793 22 l 571 -76 q 553 -114 553 -101 q 581 -135 553 -135 l 658 -135 l 658 -260 z "},"ų":{"ha":886,"x_min":54,"x_max":861,"o":"m 343 -14 q 128 63 201 -14 q 54 263 54 140 l 54 696 l 263 696 l 263 332 q 303 210 263 247 q 442 172 344 172 q 584 213 542 172 q 626 343 626 253 l 626 696 l 835 696 l 835 0 l 774 -76 q 756 -114 756 -99 q 783 -135 756 -135 l 861 -135 l 861 -260 l 735 -260 q 596 -162 596 -260 q 608 -115 596 -139 q 629 -78 619 -90 q 663 -39 639 -67 l 699 0 l 640 0 l 640 213 l 629 213 q 542 51 614 115 q 343 -14 471 -14 z "},"Ŵ":{"ha":1518,"x_min":15,"x_max":1501,"o":"m 675 1014 l 451 1014 l 635 1194 l 883 1194 l 1068 1014 l 843 1014 l 767 1094 l 753 1094 l 675 1014 m 544 0 l 235 0 l 15 931 l 249 931 l 361 403 l 393 199 l 408 199 l 451 403 l 607 931 l 917 931 l 1071 403 l 1114 199 l 1129 199 l 1161 403 l 1274 931 l 1501 931 l 1281 0 l 971 0 l 832 465 l 767 733 l 751 733 l 686 465 l 544 0 z "},"ŵ":{"ha":1267,"x_min":0,"x_max":1267,"o":"m 547 778 l 325 778 l 508 958 l 757 958 l 940 778 l 717 778 l 640 858 l 626 858 l 547 778 m 450 0 l 190 0 l 0 696 l 215 696 l 297 378 l 326 161 l 340 161 l 396 399 l 501 696 l 769 696 l 874 399 l 929 161 l 943 161 l 974 378 l 1054 696 l 1267 696 l 1069 0 l 810 0 l 690 335 l 639 526 l 624 526 l 571 335 l 450 0 z "},"Ŷ":{"ha":1011,"x_min":-15,"x_max":1026,"o":"m 419 1014 l 197 1014 l 381 1194 l 629 1194 l 814 1014 l 589 1014 l 513 1094 l 499 1094 l 419 1014 m 607 0 l 397 0 l 397 308 l -15 931 l 242 931 l 419 658 l 497 533 l 513 533 l 590 658 l 768 931 l 1026 931 l 607 307 l 607 0 z "},"ŷ":{"ha":863,"x_min":-7,"x_max":868,"o":"m 344 778 l 122 778 l 306 958 l 554 958 l 739 778 l 514 778 l 438 858 l 424 858 l 344 778 m 189 -236 l 75 -236 l 75 -47 l 246 -47 q 333 -3 313 -47 l -7 696 l 229 696 l 376 378 l 435 214 l 449 214 l 504 379 l 636 696 l 868 696 l 524 -50 q 400 -197 475 -157 q 189 -236 325 -236 z "},"Ÿ":{"ha":1011,"x_min":-15,"x_max":1026,"o":"m 753 1014 l 554 1014 l 554 1197 l 753 1197 l 753 1014 m 457 1014 l 258 1014 l 258 1197 l 457 1197 l 457 1014 m 607 0 l 397 0 l 397 308 l -15 931 l 242 931 l 419 658 l 497 533 l 513 533 l 590 658 l 768 931 l 1026 931 l 607 307 l 607 0 z "},"Ź":{"ha":951,"x_min":40,"x_max":913,"o":"m 588 1014 l 365 1014 l 546 1196 l 844 1196 l 588 1014 m 913 0 l 40 0 l 40 188 l 588 728 l 588 743 l 53 743 l 53 931 l 901 931 l 901 743 l 336 203 l 336 188 l 913 188 l 913 0 z "},"ź":{"ha":792,"x_min":26,"x_max":765,"o":"m 508 778 l 283 778 l 465 958 l 764 958 l 508 778 m 765 0 l 26 0 l 26 178 l 325 415 l 471 507 l 471 521 l 325 513 l 47 513 l 47 696 l 744 696 l 744 517 l 422 268 l 290 186 l 290 172 l 422 182 l 765 182 l 765 0 z "},"Ż":{"ha":951,"x_min":40,"x_max":913,"o":"m 581 1014 l 372 1014 l 372 1197 l 581 1197 l 581 1014 m 913 0 l 40 0 l 40 188 l 588 728 l 588 743 l 53 743 l 53 931 l 901 931 l 901 743 l 336 203 l 336 188 l 913 188 l 913 0 z "},"ż":{"ha":792,"x_min":26,"x_max":765,"o":"m 500 778 l 292 778 l 292 961 l 500 961 l 500 778 m 765 0 l 26 0 l 26 178 l 325 415 l 471 507 l 471 521 l 325 513 l 47 513 l 47 696 l 744 696 l 744 517 l 422 268 l 290 186 l 290 172 l 422 182 l 765 182 l 765 0 z "},"Ž":{"ha":951,"x_min":40,"x_max":913,"o":"m 563 1194 l 785 1194 l 601 1014 l 353 1014 l 168 1194 l 393 1194 l 469 1114 l 483 1114 l 563 1194 m 913 0 l 40 0 l 40 188 l 588 728 l 588 743 l 53 743 l 53 931 l 901 931 l 901 743 l 336 203 l 336 188 l 913 188 l 913 0 z "},"ž":{"ha":792,"x_min":26,"x_max":765,"o":"m 519 778 l 271 778 l 88 958 l 319 958 l 389 878 l 403 878 l 472 958 l 704 958 l 519 778 m 765 0 l 26 0 l 26 178 l 325 415 l 471 507 l 471 521 l 325 513 l 47 513 l 47 696 l 744 696 l 744 517 l 422 268 l 290 186 l 290 172 l 422 182 l 765 182 l 765 0 z "},"ƒ":{"ha":760,"x_min":-14,"x_max":774,"o":"m 61 -236 l -14 -236 l 18 -49 l 72 -49 q 184 -28 156 -49 q 225 63 213 -7 l 279 372 l 133 372 l 167 558 l 313 558 l 324 624 q 448 857 351 783 q 726 931 544 931 l 774 931 l 740 743 l 688 743 q 575 722 604 743 q 533 632 546 701 l 521 558 l 708 558 l 675 372 l 489 372 l 436 71 q 320 -167 406 -99 q 61 -236 235 -236 z "},"Ǽ":{"ha":1635,"x_min":-8,"x_max":1596,"o":"m 1313 1014 l 1089 1014 l 1269 1196 l 1568 1196 l 1313 1014 m 250 0 l -8 0 l 679 931 l 1596 931 l 1596 743 l 1017 743 l 1017 561 l 1575 561 l 1575 375 l 1017 375 l 1017 188 l 1596 188 l 1596 0 l 807 0 l 807 206 l 400 206 l 250 0 m 796 746 l 538 393 l 807 393 l 807 746 l 796 746 z "},"ǽ":{"ha":1351,"x_min":28,"x_max":1332,"o":"m 792 778 l 567 778 l 750 958 l 1049 958 l 792 778 m 278 -14 q 94 35 160 -14 q 28 172 28 85 q 85 299 28 251 q 253 357 142 347 l 567 389 l 567 411 q 533 502 567 478 q 413 526 500 526 q 288 502 325 526 q 250 419 250 478 l 250 408 l 42 408 l 42 418 q 143 629 42 549 q 415 710 244 710 q 683 619 596 710 q 953 710 786 710 q 1229 622 1126 710 q 1332 372 1332 533 q 1326 306 1332 338 l 760 306 q 807 188 764 224 q 950 153 850 153 q 1078 176 1040 153 q 1117 244 1117 199 l 1117 258 l 1325 258 l 1325 243 q 1224 58 1325 129 q 957 -14 1122 -14 q 604 165 694 -14 l 594 165 q 483 33 565 79 q 278 -14 400 -14 m 1084 516 q 1062 532 1084 516 q 949 547 1040 547 q 813 515 857 547 q 763 415 769 483 l 1133 415 q 1084 516 1128 485 m 238 186 q 332 133 238 133 q 506 163 447 133 q 574 264 564 192 l 574 267 l 308 238 q 238 186 238 231 z "},"Ǿ":{"ha":1075,"x_min":17,"x_max":1054,"o":"m 649 1014 l 425 1014 l 606 1196 l 904 1196 l 649 1014 m 535 -14 q 222 74 349 -14 l 117 -25 l 17 81 l 118 175 q 35 465 35 294 q 169 814 35 683 q 535 944 304 944 q 851 858 722 944 l 954 954 l 1054 849 l 956 757 q 1040 465 1040 639 q 905 116 1040 246 q 535 -14 769 -14 m 256 465 q 275 321 256 375 l 700 718 q 535 744 639 744 q 318 682 381 744 q 256 465 256 619 m 535 186 q 753 249 689 186 q 818 465 818 311 q 799 610 818 551 l 372 213 q 535 186 431 186 z "},"ǿ":{"ha":853,"x_min":22,"x_max":824,"o":"m 538 778 l 314 778 l 496 958 l 794 958 l 538 778 m 426 -14 q 183 51 283 -14 l 97 -28 l 22 56 l 100 126 q 29 347 29 217 q 138 611 29 513 q 426 710 247 710 q 667 647 565 710 l 747 722 l 824 639 l 751 572 q 824 347 824 478 q 715 85 824 183 q 426 -14 606 -14 m 236 347 q 247 263 236 300 l 521 514 q 426 526 483 526 q 279 484 322 526 q 236 347 236 442 m 426 171 q 574 213 531 171 q 617 347 617 254 q 603 436 617 403 l 328 183 q 426 171 367 171 z "},"Ș":{"ha":921,"x_min":29,"x_max":892,"o":"m 478 -14 q 151 69 265 -14 q 38 314 38 153 l 38 322 l 246 322 l 246 297 q 293 203 246 231 q 478 176 340 176 q 641 196 599 176 q 683 264 683 215 q 656 326 683 306 q 556 358 628 346 l 294 396 q 29 657 29 438 q 134 860 29 776 q 456 944 239 944 q 769 857 664 944 q 875 617 875 769 l 875 608 l 665 608 l 665 628 q 617 726 665 697 q 435 754 569 754 q 282 733 325 754 q 239 665 239 711 q 263 607 239 625 q 347 578 288 589 l 608 536 q 892 274 892 490 q 789 68 892 150 q 478 -14 686 -14 m 449 -278 l 210 -278 l 354 -97 l 653 -97 l 449 -278 z "},"ș":{"ha":781,"x_min":31,"x_max":751,"o":"m 407 -14 q 138 52 232 -14 q 43 239 43 118 l 43 243 l 251 243 l 251 231 q 285 168 251 185 q 408 151 318 151 q 517 165 489 151 q 546 211 546 179 q 526 252 546 240 q 443 272 506 264 l 247 296 q 31 490 31 319 q 117 649 31 588 q 374 710 203 710 q 638 645 546 710 q 731 454 731 581 l 731 450 l 522 450 l 522 458 q 490 524 522 504 q 367 544 458 544 q 263 531 290 544 q 236 482 236 517 q 258 441 236 454 q 347 419 281 428 l 496 401 q 692 338 633 386 q 751 203 751 290 q 659 45 751 104 q 407 -14 567 -14 m 350 -278 l 142 -278 l 268 -97 l 536 -97 l 350 -278 z "},"Ț":{"ha":939,"x_min":19,"x_max":919,"o":"m 574 0 l 365 0 l 365 743 l 19 743 l 19 931 l 919 931 l 919 743 l 574 743 l 574 0 m 474 -278 l 233 -278 l 378 -97 l 676 -97 l 474 -278 z "},"ț":{"ha":568,"x_min":3,"x_max":546,"o":"m 546 0 l 374 0 q 113 251 113 0 l 113 524 l 3 524 l 3 696 l 113 696 l 113 831 l 321 831 l 321 696 l 546 696 l 546 524 l 321 524 l 321 275 q 342 206 321 224 q 421 188 364 188 l 546 188 l 546 0 m 336 -278 l 126 -278 l 253 -97 l 521 -97 l 336 -278 z "},"ȷ":{"ha":319,"x_min":-51,"x_max":264,"o":"m -17 -236 l -51 -236 l -51 -81 l -14 -81 q 56 -14 56 -81 l 56 696 l 264 696 l 264 19 q 193 -178 264 -121 q -17 -236 122 -236 z "},"̀":{"ha":568,"x_min":-86,"x_max":394,"o":"m 394 778 l 171 778 l -86 958 l 213 958 l 394 778 z "},"́":{"ha":568,"x_min":174,"x_max":654,"o":"m 397 778 l 174 778 l 356 958 l 654 958 l 397 778 z "},"̂":{"ha":717,"x_min":51,"x_max":668,"o":"m 274 778 l 51 778 l 235 958 l 483 958 l 668 778 l 443 778 l 367 858 l 353 858 l 274 778 z "},"̃":{"ha":642,"x_min":67,"x_max":585,"o":"m 207 769 l 67 769 l 67 832 q 196 974 67 974 q 311 943 242 974 l 353 925 q 411 906 392 906 q 446 946 446 906 l 446 964 l 585 964 l 585 903 q 555 799 585 838 q 464 760 525 760 q 346 790 413 760 l 292 811 q 236 829 253 829 q 207 797 207 829 l 207 769 z "},"̄":{"ha":608,"x_min":76,"x_max":532,"o":"m 532 793 l 76 793 l 76 943 l 532 943 l 532 793 z "},"̆":{"ha":540,"x_min":46,"x_max":493,"o":"m 431 815 q 400 789 431 815 q 269 764 369 764 q 108 815 169 764 q 46 946 46 865 l 46 960 l 193 960 l 193 949 q 209 901 193 914 q 269 888 225 888 q 331 901 315 888 q 346 949 346 914 l 346 960 l 493 960 l 493 946 q 431 815 493 865 z "},"̇":{"ha":299,"x_min":46,"x_max":254,"o":"m 254 778 l 46 778 l 46 961 l 254 961 l 254 778 z "},"̈":{"ha":578,"x_min":42,"x_max":536,"o":"m 536 778 l 338 778 l 338 961 l 536 961 l 536 778 m 240 778 l 42 778 l 42 961 l 240 961 l 240 778 z "},"̊":{"ha":374,"x_min":43,"x_max":332,"o":"m 292 789 q 273 772 292 789 q 188 756 253 756 q 83 789 122 756 q 43 878 43 822 q 83 967 43 933 q 188 1000 122 1000 q 292 967 253 1000 q 332 878 332 933 q 292 789 332 822 m 188 838 q 242 878 242 838 q 188 918 242 918 q 132 878 132 918 q 188 838 132 838 z "},"̋":{"ha":829,"x_min":114,"x_max":853,"o":"m 671 778 l 461 778 l 582 958 l 853 958 l 671 778 m 322 778 l 114 778 l 233 958 l 504 958 l 322 778 z "},"̌":{"ha":717,"x_min":51,"x_max":668,"o":"m 483 778 l 235 778 l 51 958 l 283 958 l 353 878 l 367 878 l 436 958 l 668 958 l 483 778 z "},"̒":{"ha":896,"x_min":306,"x_max":700,"o":"m 492 958 l 700 958 l 574 778 l 306 778 l 492 958 z "},"̦":{"ha":504,"x_min":46,"x_max":440,"o":"m 256 -278 l 46 -278 l 172 -97 l 440 -97 l 256 -278 z "},"̧":{"ha":425,"x_min":167,"x_max":451,"o":"m 304 -318 l 167 -318 l 167 -207 l 307 -207 q 331 -189 331 -207 q 307 -169 331 -169 l 171 -169 l 171 4 l 279 4 l 279 -60 l 304 -60 q 413 -94 374 -60 q 451 -187 451 -128 q 413 -283 451 -247 q 304 -318 374 -318 z "},"̨":{"ha":356,"x_min":54,"x_max":319,"o":"m 319 -260 l 193 -260 q 54 -162 54 -260 q 66 -115 54 -139 q 88 -78 78 -90 q 121 -39 97 -67 l 157 0 l 293 0 l 232 -76 q 213 -114 213 -100 q 240 -135 213 -135 l 319 -135 l 319 -260 z "},"̵":{"ha":958,"x_min":219,"x_max":739,"o":"m 739 686 l 219 686 l 219 843 l 739 843 l 739 686 z "},"̷":{"ha":535,"x_min":0,"x_max":535,"o":"m 535 589 l 60 363 l 0 482 l 475 708 l 535 589 z "},"̸":{"ha":836,"x_min":17,"x_max":819,"o":"m 819 639 l 93 -26 l 17 56 l 743 722 l 819 639 z "},"Ẁ":{"ha":1518,"x_min":15,"x_max":1501,"o":"m 872 1014 l 649 1014 l 392 1196 l 690 1196 l 872 1014 m 544 0 l 235 0 l 15 931 l 249 931 l 361 403 l 393 199 l 408 199 l 451 403 l 607 931 l 917 931 l 1071 403 l 1114 199 l 1129 199 l 1161 403 l 1274 931 l 1501 931 l 1281 0 l 971 0 l 832 465 l 767 733 l 751 733 l 686 465 l 544 0 z "},"ẁ":{"ha":1267,"x_min":0,"x_max":1267,"o":"m 743 778 l 519 778 l 264 958 l 563 958 l 743 778 m 450 0 l 190 0 l 0 696 l 215 696 l 297 378 l 326 161 l 340 161 l 396 399 l 501 696 l 769 696 l 874 399 l 929 161 l 943 161 l 974 378 l 1054 696 l 1267 696 l 1069 0 l 810 0 l 690 335 l 639 526 l 624 526 l 571 335 l 450 0 z "},"Ẃ":{"ha":1518,"x_min":15,"x_max":1501,"o":"m 871 1014 l 647 1014 l 829 1196 l 1126 1196 l 871 1014 m 544 0 l 235 0 l 15 931 l 249 931 l 361 403 l 393 199 l 408 199 l 451 403 l 607 931 l 917 931 l 1071 403 l 1114 199 l 1129 199 l 1161 403 l 1274 931 l 1501 931 l 1281 0 l 971 0 l 832 465 l 767 733 l 751 733 l 686 465 l 544 0 z "},"ẃ":{"ha":1267,"x_min":0,"x_max":1267,"o":"m 744 778 l 521 778 l 703 958 l 1001 958 l 744 778 m 450 0 l 190 0 l 0 696 l 215 696 l 297 378 l 326 161 l 340 161 l 396 399 l 501 696 l 769 696 l 874 399 l 929 161 l 943 161 l 974 378 l 1054 696 l 1267 696 l 1069 0 l 810 0 l 690 335 l 639 526 l 624 526 l 571 335 l 450 0 z "},"Ẅ":{"ha":1518,"x_min":15,"x_max":1501,"o":"m 1007 1014 l 808 1014 l 808 1197 l 1007 1197 l 1007 1014 m 711 1014 l 513 1014 l 513 1197 l 711 1197 l 711 1014 m 544 0 l 235 0 l 15 931 l 249 931 l 361 403 l 393 199 l 408 199 l 451 403 l 607 931 l 917 931 l 1071 403 l 1114 199 l 1129 199 l 1161 403 l 1274 931 l 1501 931 l 1281 0 l 971 0 l 832 465 l 767 733 l 751 733 l 686 465 l 544 0 z "},"ẅ":{"ha":1267,"x_min":0,"x_max":1267,"o":"m 879 778 l 682 778 l 682 961 l 879 961 l 879 778 m 583 778 l 386 778 l 386 961 l 583 961 l 583 778 m 450 0 l 190 0 l 0 696 l 215 696 l 297 378 l 326 161 l 340 161 l 396 399 l 501 696 l 769 696 l 874 399 l 929 161 l 943 161 l 974 378 l 1054 696 l 1267 696 l 1069 0 l 810 0 l 690 335 l 639 526 l 624 526 l 571 335 l 450 0 z "},"Ẽ":{"ha":882,"x_min":56,"x_max":843,"o":"m 329 1006 l 190 1006 l 190 1068 q 318 1210 190 1210 q 433 1179 364 1210 l 475 1161 q 535 1142 517 1142 q 568 1182 568 1142 l 568 1200 l 707 1200 l 707 1139 q 677 1035 707 1074 q 588 996 647 996 q 468 1026 538 996 l 414 1047 q 358 1065 378 1065 q 329 1032 329 1065 l 329 1006 m 843 0 l 56 0 l 56 931 l 843 931 l 843 743 l 264 743 l 264 561 l 822 561 l 822 375 l 264 375 l 264 188 l 843 188 l 843 0 z "},"ẽ":{"ha":833,"x_min":35,"x_max":800,"o":"m 297 769 l 158 769 l 158 832 q 288 974 158 974 q 403 943 331 974 l 444 925 q 503 906 483 906 q 538 946 538 906 l 538 964 l 675 964 l 675 903 q 645 799 675 838 q 556 760 615 760 q 436 790 506 760 l 382 811 q 328 829 346 829 q 297 797 297 829 l 297 769 m 425 -14 q 140 77 244 -14 q 35 347 35 168 q 141 611 35 513 q 421 710 247 710 q 697 622 594 710 q 800 372 800 533 q 794 306 800 353 l 228 306 q 275 188 232 224 q 418 153 318 153 q 547 176 508 153 q 585 244 585 199 l 585 258 l 793 258 l 793 243 q 692 58 793 129 q 425 -14 590 -14 m 552 516 q 530 532 552 516 q 417 547 508 547 q 281 515 325 547 q 231 415 238 483 l 600 415 q 552 516 596 485 z "},"Ỳ":{"ha":1011,"x_min":-15,"x_max":1026,"o":"m 617 1014 l 394 1014 l 138 1196 l 436 1196 l 617 1014 m 607 0 l 397 0 l 397 308 l -15 931 l 242 931 l 419 658 l 497 533 l 513 533 l 590 658 l 768 931 l 1026 931 l 607 307 l 607 0 z "},"ỳ":{"ha":863,"x_min":-7,"x_max":868,"o":"m 540 778 l 318 778 l 61 958 l 360 958 l 540 778 m 189 -236 l 75 -236 l 75 -47 l 246 -47 q 333 -3 313 -47 l -7 696 l 229 696 l 376 378 l 435 214 l 449 214 l 504 379 l 636 696 l 868 696 l 524 -50 q 400 -197 475 -157 q 189 -236 325 -236 z "},"Ỹ":{"ha":1011,"x_min":-15,"x_max":1026,"o":"m 386 1006 l 247 1006 l 247 1068 q 375 1210 247 1210 q 490 1179 421 1210 l 532 1161 q 592 1142 574 1142 q 625 1182 625 1142 l 625 1200 l 764 1200 l 764 1139 q 734 1035 764 1074 q 644 996 704 996 q 525 1026 594 996 l 471 1047 q 415 1065 435 1065 q 386 1032 386 1065 l 386 1006 m 607 0 l 397 0 l 397 308 l -15 931 l 242 931 l 419 658 l 497 533 l 513 533 l 590 658 l 768 931 l 1026 931 l 607 307 l 607 0 z "},"ỹ":{"ha":863,"x_min":-7,"x_max":868,"o":"m 311 769 l 172 769 l 172 832 q 300 974 172 974 q 415 943 346 974 l 457 925 q 517 906 499 906 q 550 946 550 906 l 550 964 l 689 964 l 689 903 q 659 799 689 838 q 569 760 629 760 q 450 790 519 760 l 396 811 q 340 829 357 829 q 311 797 311 829 l 311 769 m 189 -236 l 75 -236 l 75 -47 l 246 -47 q 333 -3 313 -47 l -7 696 l 229 696 l 376 378 l 435 214 l 449 214 l 504 379 l 636 696 l 868 696 l 524 -50 q 400 -197 475 -157 q 189 -236 325 -236 z "},"–":{"ha":797,"x_min":42,"x_max":756,"o":"m 756 321 l 42 321 l 42 500 l 756 500 l 756 321 z "},"—":{"ha":1376,"x_min":42,"x_max":1335,"o":"m 1335 321 l 42 321 l 42 500 l 1335 500 l 1335 321 z "},"‘":{"ha":351,"x_min":42,"x_max":310,"o":"m 228 944 l 303 944 l 303 815 l 235 815 q 201 806 211 815 q 192 772 192 797 l 192 749 l 310 749 l 310 506 l 42 506 l 42 771 q 228 944 42 944 z "},"’":{"ha":351,"x_min":42,"x_max":310,"o":"m 124 492 l 50 492 l 50 621 l 118 621 q 150 630 140 621 q 160 664 160 639 l 160 688 l 42 688 l 42 931 l 310 931 l 310 665 q 124 492 310 492 z "},"‚":{"ha":396,"x_min":42,"x_max":310,"o":"m 124 -196 l 50 -196 l 50 -67 l 118 -67 q 150 -58 140 -67 q 160 -24 160 -50 l 160 0 l 42 0 l 42 243 l 310 243 l 310 -22 q 124 -196 310 -196 z "},"“":{"ha":690,"x_min":42,"x_max":649,"o":"m 228 944 l 303 944 l 303 815 l 235 815 q 201 806 211 815 q 192 772 192 797 l 192 749 l 310 749 l 310 506 l 42 506 l 42 771 q 228 944 42 944 m 567 944 l 640 944 l 640 815 l 572 815 q 540 806 550 815 q 531 772 531 797 l 531 749 l 649 749 l 649 506 l 379 506 l 379 771 q 428 901 379 857 q 567 944 476 944 z "},"”":{"ha":690,"x_min":42,"x_max":649,"o":"m 461 492 l 388 492 l 388 621 l 456 621 q 488 630 478 621 q 497 664 497 639 l 497 688 l 379 688 l 379 931 l 649 931 l 649 665 q 600 535 649 579 q 461 492 551 492 m 124 492 l 50 492 l 50 621 l 118 621 q 150 630 140 621 q 160 664 160 639 l 160 688 l 42 688 l 42 931 l 310 931 l 310 665 q 124 492 310 492 z "},"„":{"ha":690,"x_min":42,"x_max":649,"o":"m 124 -196 l 50 -196 l 50 -67 l 118 -67 q 150 -58 140 -67 q 160 -24 160 -50 l 160 0 l 42 0 l 42 243 l 310 243 l 310 -22 q 124 -196 310 -196 m 461 -196 l 388 -196 l 388 -67 l 456 -67 q 488 -58 479 -67 q 497 -24 497 -50 l 497 0 l 379 0 l 379 243 l 649 243 l 649 -22 q 600 -152 649 -108 q 461 -196 551 -196 z "},"†":{"ha":744,"x_min":28,"x_max":717,"o":"m 475 0 l 268 0 l 268 543 l 28 543 l 28 715 l 268 715 l 268 931 l 475 931 l 475 715 l 717 715 l 717 543 l 475 543 l 475 0 z "},"‡":{"ha":744,"x_min":28,"x_max":717,"o":"m 475 0 l 268 0 l 268 215 l 28 215 l 28 388 l 268 388 l 268 543 l 28 543 l 28 715 l 268 715 l 268 931 l 475 931 l 475 715 l 717 715 l 717 543 l 475 543 l 475 388 l 717 388 l 717 215 l 475 215 l 475 0 z "},"•":{"ha":465,"x_min":31,"x_max":433,"o":"m 232 264 q 89 319 147 264 q 31 465 31 374 q 89 612 31 557 q 232 667 147 667 q 376 612 318 667 q 433 465 433 557 q 376 319 433 374 q 232 264 318 264 z "},"…":{"ha":1093,"x_min":44,"x_max":1049,"o":"m 314 0 l 44 0 l 44 243 l 314 243 l 314 0 m 681 0 l 413 0 l 413 243 l 681 243 l 681 0 m 1049 0 l 781 0 l 781 242 l 1049 242 l 1049 0 z "},"‰":{"ha":1671,"x_min":21,"x_max":1650,"o":"m 265 482 q 86 545 151 482 q 21 714 21 608 q 86 883 21 819 q 265 947 151 947 q 446 883 381 947 q 511 714 511 819 q 446 545 511 608 q 265 482 381 482 m 271 0 l 69 0 l 860 931 l 1061 931 l 271 0 m 190 640 q 201 629 190 640 q 265 618 211 618 q 341 640 319 618 q 363 714 363 661 q 341 789 363 767 q 265 811 319 811 q 191 789 213 811 q 169 714 169 767 q 190 640 169 661 m 1584 48 q 1551 16 1584 48 q 1404 -15 1518 -15 q 1225 48 1290 -15 q 1160 217 1160 111 q 1225 385 1160 322 q 1404 449 1290 449 q 1584 385 1518 449 q 1650 217 1650 322 q 1584 48 1650 111 m 1044 48 q 1011 16 1044 48 q 864 -15 978 -15 q 684 48 750 -15 q 618 217 618 111 q 684 385 618 322 q 864 449 750 449 q 1044 385 978 449 q 1110 217 1110 322 q 1044 48 1110 111 m 1328 142 q 1339 132 1328 142 q 1404 121 1350 121 q 1480 142 1458 121 q 1501 217 1501 164 q 1480 292 1501 269 q 1404 314 1458 314 q 1328 292 1350 314 q 1307 217 1307 269 q 1328 142 1307 164 m 788 142 q 799 132 788 142 q 864 121 810 121 q 940 142 918 121 q 961 217 961 164 q 940 292 961 269 q 864 314 918 314 q 788 292 810 314 q 767 217 767 269 q 788 142 767 164 z "},"‹":{"ha":354,"x_min":35,"x_max":313,"o":"m 35 539 l 313 725 l 313 511 l 175 432 l 175 415 l 313 336 l 313 122 l 35 308 l 35 539 z "},"›":{"ha":354,"x_min":42,"x_max":319,"o":"m 319 308 l 42 122 l 42 336 l 179 415 l 179 432 l 42 511 l 42 725 l 319 539 l 319 308 z "},"⁄":{"ha":346,"x_min":-322,"x_max":669,"o":"m -121 0 l -322 0 l 468 931 l 669 931 l -121 0 z "},"⁰":{"ha":574,"x_min":28,"x_max":546,"o":"m 477 517 q 443 484 477 517 q 288 451 408 451 q 97 517 167 451 q 28 697 28 583 q 97 878 28 811 q 288 944 167 944 q 477 878 408 944 q 546 697 546 811 q 477 517 546 583 m 207 615 q 219 602 207 615 q 288 589 232 589 q 367 615 343 589 q 392 697 392 640 q 367 781 392 756 q 288 807 343 807 q 207 781 232 807 q 182 697 182 756 q 207 615 182 640 z "},"⁴":{"ha":542,"x_min":14,"x_max":522,"o":"m 440 465 l 293 465 l 293 556 l 14 556 l 14 671 l 267 931 l 440 931 l 440 686 l 522 686 l 522 556 l 440 556 l 440 465 m 179 686 l 293 686 l 293 801 l 282 801 l 179 697 l 179 686 z "},"€":{"ha":925,"x_min":14,"x_max":883,"o":"m 728 301 l 376 301 q 458 213 401 238 q 617 188 515 188 l 883 188 l 883 0 l 617 0 q 318 78 439 0 q 153 301 197 157 l 14 301 l 14 431 l 131 431 q 129 465 129 442 q 131 497 129 488 l 14 497 l 14 628 l 151 628 q 317 851 194 772 q 617 931 439 931 l 883 931 l 883 743 l 617 743 q 457 717 514 743 q 375 628 400 692 l 728 628 l 728 497 l 353 497 l 353 465 l 353 431 l 728 431 l 728 301 z "},"₹":{"ha":847,"x_min":49,"x_max":810,"o":"m 788 0 l 506 0 l 303 211 q 225 268 263 251 q 133 285 188 285 l 49 285 l 49 458 l 306 458 q 398 476 369 458 q 432 538 426 493 l 49 538 l 49 694 l 435 694 l 435 775 l 49 775 l 49 931 l 810 931 l 810 775 l 643 775 l 643 694 l 810 694 l 810 538 l 639 538 q 396 354 611 354 l 396 340 q 460 315 429 333 q 508 283 490 297 q 563 232 525 268 l 788 0 z "},"™":{"ha":769,"x_min":21,"x_max":742,"o":"m 460 651 l 369 651 l 369 931 l 494 931 l 554 746 l 558 746 l 615 931 l 742 931 l 742 651 l 651 651 l 651 744 l 654 813 l 649 813 l 608 679 l 504 679 l 460 813 l 456 813 l 460 744 l 460 651 m 228 651 l 128 651 l 128 839 l 21 839 l 21 931 l 335 931 l 335 839 l 228 839 l 228 651 z "},"−":{"ha":710,"x_min":44,"x_max":665,"o":"m 665 379 l 44 379 l 44 551 l 665 551 l 665 379 z "},"≈":{"ha":769,"x_min":44,"x_max":724,"o":"m 219 224 l 44 224 l 44 297 q 122 449 44 411 l 122 464 l 44 464 l 44 554 q 203 724 44 724 q 360 681 257 724 l 449 650 q 513 629 496 629 q 542 640 535 629 q 550 675 550 651 l 550 707 l 724 707 l 724 633 q 706 534 724 571 q 646 478 689 497 l 646 467 l 724 467 l 724 393 q 575 214 724 214 q 414 250 514 214 l 322 279 q 261 301 281 301 q 219 256 219 301 l 219 224 m 536 381 q 579 433 579 381 l 579 467 q 542 458 567 458 q 418 492 501 458 l 314 531 q 243 554 264 554 q 192 500 192 554 l 192 468 q 243 478 213 478 q 332 449 276 478 l 436 413 q 536 381 511 381 z "},"≠":{"ha":710,"x_min":44,"x_max":667,"o":"m 665 224 l 310 224 l 214 47 l 82 115 l 140 224 l 44 224 l 44 396 l 233 396 l 308 535 l 44 535 l 44 707 l 401 707 l 496 883 l 628 814 l 569 707 l 667 707 l 667 535 l 476 535 l 403 396 l 665 396 l 665 224 z "},"≤":{"ha":708,"x_min":42,"x_max":663,"o":"m 663 19 l 42 19 l 42 192 l 478 192 l 478 207 l 42 342 l 42 589 l 663 785 l 663 590 l 231 472 l 231 458 l 663 340 l 663 19 z "},"≥":{"ha":707,"x_min":44,"x_max":665,"o":"m 665 19 l 44 19 l 44 340 l 476 458 l 476 472 l 44 590 l 44 785 l 665 589 l 665 342 l 229 207 l 229 192 l 665 192 l 665 19 z "},"ﬀ":{"ha":1086,"x_min":13,"x_max":1072,"o":"m 319 0 l 111 0 l 111 524 l 13 524 l 13 696 l 115 696 q 224 867 132 804 q 474 931 317 931 l 535 931 l 535 779 l 440 779 q 338 762 368 779 q 311 696 307 744 l 535 696 l 535 524 l 319 524 l 319 0 m 858 0 l 649 0 l 649 524 l 550 524 l 550 696 l 653 696 q 763 867 669 804 q 1011 931 856 931 l 1072 931 l 1072 779 l 978 779 q 875 762 906 779 q 850 696 844 744 l 1072 696 l 1072 524 l 858 524 l 858 0 z "},"ﬁ":{"ha":867,"x_min":13,"x_max":813,"o":"m 319 0 l 111 0 l 111 524 l 13 524 l 13 696 l 115 696 q 224 867 132 804 q 474 931 317 931 l 535 931 l 535 779 l 440 779 q 338 762 368 779 q 311 696 307 744 l 535 696 l 535 524 l 319 524 l 319 0 m 813 767 l 604 767 l 604 931 l 813 931 l 813 767 m 813 0 l 604 0 l 604 696 l 813 696 l 813 0 z "},"ﬂ":{"ha":867,"x_min":13,"x_max":813,"o":"m 319 0 l 111 0 l 111 524 l 13 524 l 13 696 l 115 696 q 224 867 132 804 q 474 931 317 931 l 535 931 l 535 779 l 440 779 q 338 762 368 779 q 311 696 307 744 l 535 696 l 535 524 l 319 524 l 319 0 m 813 0 l 604 0 l 604 931 l 813 931 l 813 0 z "},"ﬃ":{"ha":1406,"x_min":13,"x_max":1350,"o":"m 319 0 l 111 0 l 111 524 l 13 524 l 13 696 l 115 696 q 224 867 132 804 q 474 931 317 931 l 535 931 l 535 779 l 440 779 q 338 762 368 779 q 311 696 307 744 l 535 696 l 535 524 l 319 524 l 319 0 m 858 0 l 649 0 l 649 524 l 550 524 l 550 696 l 653 696 q 763 867 669 804 q 1011 931 856 931 l 1072 931 l 1072 779 l 978 779 q 875 762 906 779 q 850 696 844 744 l 1072 696 l 1072 524 l 858 524 l 858 0 m 1350 767 l 1142 767 l 1142 931 l 1350 931 l 1350 767 m 1350 0 l 1142 0 l 1142 696 l 1350 696 l 1350 0 z "},"ﬄ":{"ha":1406,"x_min":13,"x_max":1350,"o":"m 319 0 l 111 0 l 111 524 l 13 524 l 13 696 l 115 696 q 224 867 132 804 q 474 931 317 931 l 535 931 l 535 779 l 440 779 q 338 762 368 779 q 311 696 307 744 l 535 696 l 535 524 l 319 524 l 319 0 m 858 0 l 649 0 l 649 524 l 550 524 l 550 696 l 653 696 q 763 867 669 804 q 1011 931 856 931 l 1072 931 l 1072 779 l 978 779 q 875 762 906 779 q 850 696 844 744 l 1072 696 l 1072 524 l 858 524 l 858 0 m 1350 0 l 1142 0 l 1142 931 l 1350 931 l 1350 0 z "}}}
